<?xml version="1.0" encoding="utf-8"?>
<!-- Generator: Adobe Illustrator 15.0.0, SVG Export Plug-In . SVG Version: 6.00 Build 0)  -->
<!DOCTYPE svg PUBLIC "-//W3C//DTD SVG 1.1//EN" "http://www.w3.org/Graphics/SVG/1.1/DTD/svg11.dtd">
<svg version="1.1" id="Layer_1" xmlns="http://www.w3.org/2000/svg" xmlns:xlink="http://www.w3.org/1999/xlink" x="0px" y="0px"
	 width="512px" height="512px" viewBox="0 0 512 512" enable-background="new 0 0 512 512" xml:space="preserve">
<path fill="#2186D1" d="M461.41,47.489c3.065-1.917,5.682-4.471,7.677-7.49c7.725-11.805,4.46-27.632-7.302-35.418
	c-7.232-4.787-16.405-5.568-24.344-2.073c-7.936,3.499-13.551,10.797-14.894,19.365C353.761-9.872,272.1,13.508,230.539,76.843
	l-7.037,10.708c-6.634,10.09-6.533,23.184,0.25,33.173c6.783,9.989,18.916,14.909,30.74,12.464c1.273-0.308,2.522-0.695,3.745-1.16
	c3.319,18.127,19.106,31.307,37.534,31.334c2.625-0.004,5.244-0.27,7.814-0.793c1.968-0.453,3.9-1.05,5.775-1.792
	c1.176,12.773,8.079,24.328,18.768,31.42h0.051l-64.601,98.159h-16.096c-11.168,0.027-21.028,7.295-24.363,17.951
	c-3.331,10.661,0.628,22.247,9.79,28.636L218.664,358.6H30.139c-15.799-0.031-28.874,12.285-29.787,28.058
	c-0.457,8.024,2.452,15.873,8.024,21.66c6.01,6.361,14.367,9.978,23.118,9.997h3.108c-9.84,12.859-11.512,30.193-4.303,44.692
	c7.208,14.5,22.036,23.634,38.226,23.552c1.902-0.063,3.799-0.254,5.674-0.57c0.898,0.348,1.851,0.543,2.815,0.57h392.042
	c4.71,0,8.528-3.819,8.528-8.529c0-4.713-3.818-8.532-8.528-8.532H341.223v-52.6c3.619-1.441,6.63-4.089,8.531-7.49l36.961-67.869
	h14.18c11.918,0.031,22.27-8.192,24.937-19.806c2.672-11.613-3.054-23.531-13.788-28.705c3.835-13.375-2.214-27.602-14.499-34.122
	c-6.963-3.788-15.144-4.647-22.739-2.39c-7.595,2.261-13.979,7.45-17.74,14.425l-10.527,19.415H283.99l58.368-88.717
	c6.919,4.581,15.034,7.025,23.333,7.029c2.912,0.008,5.822-0.277,8.68-0.855c1.445-0.363,2.871-0.804,4.269-1.312
	c0.461,11.211,5.83,21.657,14.679,28.557c8.849,6.9,20.286,9.56,31.275,7.271c0.223,0,0.426-0.144,0.641-0.195
	c0.862,12.761,9.781,23.542,22.152,26.785c12.375,3.24,25.434-1.789,32.443-12.489l7.021-10.68
	C528.346,182.414,517.552,98.297,461.41,47.489z M250.306,341.538h14.202V358.6h-25.421L250.306,341.538z M319.111,341.538
	l-8.684,17.062h-28.858v-17.062H319.111z M42.936,443.908c0-14.137,11.457-25.594,25.589-25.594
	c14.136,0,25.593,11.457,25.593,25.594c0,14.132-11.458,25.589-25.593,25.589C54.393,469.497,42.936,458.04,42.936,443.908z
	 M102.377,469.497c11.665-15.065,11.665-36.117,0-51.183H283.65l14.613,51.183H102.377z M301.41,418.314h22.778v42.654h-10.63
	L301.41,418.314z M334.811,401.254H31.494c-4.061-0.004-7.947-1.68-10.739-4.632c-2.331-2.382-3.565-5.623-3.413-8.95
	c0.378-6.775,6.01-12.063,12.796-12.012h280.289c6.416,0.02,12.297-3.581,15.193-9.306l12.641-24.816h29.007L334.811,401.254z
	 M400.887,324.478H247.483c-4.713,0-8.533-3.819-8.533-8.528c0-4.714,3.819-8.532,8.533-8.532h153.376
	c4.713,0,8.532,3.818,8.532,8.532c0,4.709-3.819,8.528-8.532,8.528H400.887z M372.095,279.063c1.628-3.011,4.394-5.244,7.677-6.205
	c3.25-0.977,6.756-0.598,9.717,1.051c4.127,2.233,6.688,6.561,6.665,11.254c-0.03,1.793-0.433,3.562-1.179,5.193h-29.003
	L372.095,279.063z M391.799,172.882l-56.813-37.441c17.045-25.792,37.351-49.281,60.406-69.876
	c22.82-19.322,34.797-20.567,38.304-18.271c9.587,6.338,3.14,54.654-41.921,125.588H391.799z M406.209,37.102
	c-7.771,4.428-15.093,9.603-21.864,15.448c-24.277,21.661-45.649,46.375-63.585,73.523l-35.555-23.391
	c18.088-26.105,43.24-46.524,72.508-58.86C373.017,37.391,389.734,35.071,406.209,37.102z M441.518,205.665l-35.539-23.426
	c25.5-40.237,44.794-83.481,47.875-113.823C474.726,102.249,470.837,156.665,441.518,205.665z M440.663,21.231
	c1.233-1.878,3.167-3.19,5.365-3.647c2.202-0.457,4.494-0.02,6.373,1.218c1.89,1.246,3.21,3.19,3.662,5.408
	c0.453,2.218,0.008,4.526-1.237,6.412c-2.593,3.917-7.865,4.999-11.789,2.425c-3.925-2.601-5.003-7.888-2.405-11.817H440.663z
	 M331.174,27.612c9.639-1.964,19.459-2.886,29.296-2.745c-2.979,0.937-5.971,1.859-8.966,3.038
	c-32.506,13.675-60.414,36.367-80.436,65.393l-2.928-1.875l-18.44-12.184C269.597,52.608,298.6,34.231,331.174,27.612z
	 M250.985,116.486c-5.057,1.031-10.243-1.078-13.144-5.354c-2.901-4.272-2.948-9.868-0.121-14.191l2.355-3.573l21.329,14.066
	l-2.34,3.557c-1.851,2.823-4.744,4.799-8.052,5.487L250.985,116.486z M300.099,145.863c-7.685,1.57-15.608-1.203-20.634-7.216
	c-5.029-6.018-6.35-14.308-3.44-21.591l34.864,22.981c-2.938,2.956-6.682,4.983-10.767,5.818L300.099,145.863z M370.9,191.075
	c-6.643,1.394-13.566,0.063-19.217-3.694l-7.1-4.674l-7.139-4.709c-9.016-5.963-13.292-16.963-10.672-27.448l54.451,35.887
	c-3.042,2.277-6.549,3.851-10.273,4.608L370.9,191.075z M421.087,225.642c-7.685,1.574-15.612-1.199-20.642-7.212
	c-5.029-6.018-6.35-14.312-3.44-21.595l34.926,22.946c-2.944,2.968-6.696,4.995-10.793,5.827L421.087,225.642z M457.384,252.556
	c-3.319,0.695-6.779,0.031-9.606-1.843c-5.889-3.882-7.521-11.801-3.651-17.697l2.355-3.577l21.329,14.078l-2.332,3.545
	c-1.858,2.808-4.748,4.772-8.044,5.463L457.384,252.556z M477.007,229.106l-21.36-14.128c20.603-32.685,30.174-71.125,27.296-109.66
	c17.916,39.827,15.717,85.816-5.912,123.753L477.007,229.106z"/>
<path fill="#2186D1" d="M77.014,443.908c0-4.714-3.819-8.532-8.532-8.532c-4.709,0-8.529,3.818-8.529,8.532
	c0,4.709,3.819,8.528,8.529,8.528C73.195,452.437,77.014,448.617,77.014,443.908z"/>
<path fill="#2186D1" d="M503.15,469.497h-8.528c-4.714,0-8.532,3.819-8.532,8.532c0,4.71,3.818,8.529,8.532,8.529h8.528
	c4.713,0,8.532-3.819,8.532-8.529C511.683,473.316,507.863,469.497,503.15,469.497z"/>
</svg>
