<?xml version="1.0" encoding="utf-8"?>
<!-- Generator: Adobe Illustrator 15.0.0, SVG Export Plug-In . SVG Version: 6.00 Build 0)  -->
<!DOCTYPE svg PUBLIC "-//W3C//DTD SVG 1.1//EN" "http://www.w3.org/Graphics/SVG/1.1/DTD/svg11.dtd">
<svg version="1.1" id="Layer_1" xmlns="http://www.w3.org/2000/svg" xmlns:xlink="http://www.w3.org/1999/xlink" x="0px" y="0px"
	 width="115px" height="100px" viewBox="0 0 115 100" enable-background="new 0 0 115 100" xml:space="preserve">
<g>
	<path fill="#2186D1" d="M104.877,41.299c0.292,0.229,0.646,0.348,1.004,0.348c0.24,0,0.482-0.054,0.707-0.163
		c0.558-0.271,0.912-0.837,0.912-1.458v-8.639c0-0.496-0.228-0.965-0.617-1.272L80.512,9.338c-1.85-1.457-4.434-1.457-6.283,0
		l-9.925,7.82v-3.049c0-0.895-0.726-1.62-1.62-1.62h-6.912c-0.895,0-1.62,0.725-1.62,1.62v11.047l-6.294,4.959
		c-0.39,0.307-0.617,0.776-0.617,1.272v8.639c0,0.621,0.354,1.187,0.913,1.458c0.559,0.271,1.223,0.199,1.71-0.185l0.833-0.657
		v15.785l-15.11-11.904c-1.849-1.457-4.433-1.457-6.282,0L8.117,61.217C7.728,61.523,7.5,61.992,7.5,62.489v8.64
		c0,0.62,0.354,1.186,0.913,1.457c0.225,0.109,0.466,0.162,0.707,0.162c0.357,0,0.711-0.117,1.003-0.348l0.833-0.656v16.771H9.12
		c-0.895,0-1.62,0.725-1.62,1.619s0.725,1.62,1.62,1.62h96.761c0.895,0,1.619-0.726,1.619-1.62s-0.725-1.619-1.619-1.619h-1.836
		V40.643L104.877,41.299L104.877,41.299z M57.392,15.729h3.671v3.982l-3.671,2.893V15.729z M50.48,32.174l25.754-20.291
		c0.669-0.527,1.604-0.527,2.272,0l25.753,20.291v4.515L78.373,16.292c-0.294-0.232-0.648-0.348-1.002-0.348
		c-0.355,0-0.709,0.116-1.004,0.348L50.48,36.688V32.174z M10.74,63.275l20.57-16.207c0.669-0.527,1.604-0.527,2.272,0
		l17.114,13.484v4.515L33.449,51.479c-0.588-0.464-1.417-0.464-2.005,0L10.74,67.79V63.275z M14.195,69.191l18.25-14.379
		l18.25,14.379v19.324h-7.127V69.4c0-0.895-0.726-1.619-1.62-1.619H22.943c-0.895,0-1.62,0.725-1.62,1.619v19.115h-7.127V69.191z
		 M24.563,77.932H40.33v3.672H24.563V77.932z M40.33,74.692H24.563v-3.672H40.33V74.692z M24.563,84.844H40.33v3.672H24.563V84.844z
		 M71.431,76.426c-0.036-0.002-0.071-0.006-0.108-0.006c-0.425,0-0.844,0.173-1.145,0.476c-0.302,0.3-0.475,0.719-0.475,1.145
		c0,0.425,0.173,0.845,0.475,1.145c0.301,0.302,0.72,0.476,1.145,0.476c0.037,0,0.072-0.004,0.108-0.006v8.861h-7.127V67.564h7.127
		V76.426z M100.805,88.516H74.67v-22.57c0-0.895-0.725-1.62-1.619-1.62H62.684c-0.895,0-1.62,0.726-1.62,1.62v22.57h-7.127V38.09
		l23.435-18.463l23.434,18.463V88.516z"/>
	<path fill="#2186D1" d="M81.689,81.388h10.367c0.895,0,1.621-0.726,1.621-1.62V65.945c0-0.895-0.727-1.62-1.621-1.62H81.689
		c-0.895,0-1.619,0.726-1.619,1.62v13.822C80.07,80.662,80.795,81.388,81.689,81.388z M83.311,78.148v-5.4h7.127v5.4H83.311z
		 M90.438,67.564v1.944h-7.127v-1.944H90.438z"/>
	<path fill="#2186D1" d="M81.689,57.197h10.367c0.895,0,1.621-0.725,1.621-1.619V41.755c0-0.895-0.727-1.62-1.621-1.62H81.689
		c-0.895,0-1.619,0.726-1.619,1.62v13.823C80.07,56.473,80.795,57.197,81.689,57.197z M83.311,53.958v-5.4h7.127v5.4H83.311z
		 M90.438,43.375v1.944h-7.127v-1.944H90.438z"/>
	<path fill="#2186D1" d="M73.051,40.135H62.684c-0.895,0-1.62,0.726-1.62,1.62v13.823c0,0.895,0.726,1.619,1.62,1.619h10.367
		c0.895,0,1.619-0.725,1.619-1.619V41.755C74.67,40.86,73.945,40.135,73.051,40.135z M71.431,43.375v1.944h-7.127v-1.944H71.431z
		 M64.304,53.958v-5.4h7.127v5.4H64.304z"/>
</g>
</svg>
