<?xml version="1.0" encoding="utf-8"?>
<!-- Generator: Adobe Illustrator 15.0.0, SVG Export Plug-In . SVG Version: 6.00 Build 0)  -->
<!DOCTYPE svg PUBLIC "-//W3C//DTD SVG 1.1//EN" "http://www.w3.org/Graphics/SVG/1.1/DTD/svg11.dtd">
<svg version="1.1" id="Layer_1" xmlns="http://www.w3.org/2000/svg" xmlns:xlink="http://www.w3.org/1999/xlink" x="0px" y="0px"
	 width="48.866px" height="38.018px" viewBox="0 0 48.866 38.018" enable-background="new 0 0 48.866 38.018" xml:space="preserve">
<g>
	<path fill="#313131" d="M0.225,21.541c0-6.325,1.667-11.46,5.005-15.405c3.335-3.943,8.255-5.915,14.755-5.915v9.23c-4.595,0-6.89,3.077-6.89,9.23
		v1.69h8.71v17.55H3.215C1.22,32.46,0.225,27,0.225,21.541z M27.135,21.541c0-6.325,1.668-11.46,5.005-15.405
		c3.335-3.943,8.255-5.915,14.755-5.915v9.23c-4.68,0-7.02,3.077-7.02,9.23v1.69h8.84v17.55h-18.59
		C28.13,32.721,27.135,27.261,27.135,21.541z"/>
</g>
</svg>
