<?xml version="1.0" encoding="utf-8"?>
<!-- Generator: Adobe Illustrator 15.0.0, SVG Export Plug-In . SVG Version: 6.00 Build 0)  -->
<!DOCTYPE svg PUBLIC "-//W3C//DTD SVG 1.1//EN" "http://www.w3.org/Graphics/SVG/1.1/DTD/svg11.dtd">
<svg version="1.1" id="Layer_1" xmlns="http://www.w3.org/2000/svg" xmlns:xlink="http://www.w3.org/1999/xlink" x="0px" y="0px"
	 width="115px" height="100px" viewBox="0 0 115 100" enable-background="new 0 0 115 100" xml:space="preserve">
<g>
	<g>
		<path fill="#2186D1" d="M104.273,55.963L78.098,29.787l13.66-13.661c0.396-0.397,0.619-0.936,0.617-1.497
			s-0.229-1.099-0.628-1.493l-12.71-12.53c-0.823-0.813-2.149-0.808-2.968,0.011L65.023,11.662L53.979,0.617
			C53.584,0.222,53.048,0,52.49,0S51.395,0.222,51,0.617L23.315,28.302L10.727,40.89c-0.822,0.823-0.822,2.157,0,2.979
			l26.195,26.195l-13.66,13.66c-0.395,0.396-0.617,0.932-0.617,1.49s0.222,1.094,0.617,1.489L35.94,99.383
			c0.412,0.412,0.951,0.617,1.49,0.617s1.078-0.205,1.49-0.617l11.135-11.135l10.967,10.967c0.395,0.396,0.931,0.617,1.489,0.617
			S63.605,99.61,64,99.215l27.649-27.648l12.624-12.625C105.096,58.119,105.096,56.785,104.273,55.963z M66.514,16.131
			C66.514,16.131,66.514,16.131,66.514,16.131L77.569,5.075l9.709,9.572L73.629,28.296c0,0,0,0.001,0,0.001L62.494,39.432
			l-9.641-9.64L66.514,16.131z M74.724,57.62l-9.556,9.556L53.979,55.986l-13.661-13.66l9.556-9.556l11.13,11.13L74.724,57.62z
			 M52.49,5.086l9.555,9.555l-6.442,6.442l-7.218,7.219L37.34,39.347l-9.556-9.556L52.49,5.086z M15.195,42.38l3.315-3.315
			l16.004,16.004c0.411,0.412,0.951,0.617,1.49,0.617s1.078-0.205,1.49-0.617c0.822-0.822,0.822-2.156,0-2.979L21.49,36.085
			l3.315-3.315L35.85,43.815c0,0,0.001,0,0.001,0.001l13.66,13.659l-3.36,3.36l-6.249,6.25L15.195,42.38z M48.564,83.779
			C48.564,83.779,48.564,83.779,48.564,83.779L37.43,94.914l-9.7-9.699l18.317-18.317l6.442-6.442l8.903,8.902l0.797,0.797
			l-6.437,6.438L48.564,83.779z M62.51,94.746l-9.477-9.477l13.625-13.625L77.703,60.6l9.477,9.477L62.51,94.746z M90.159,67.098
			L79.192,56.131l-13.72-13.72l3.214-3.214l16.173,16.172c0.411,0.411,0.95,0.617,1.489,0.617s1.078-0.206,1.489-0.617
			c0.823-0.822,0.823-2.156,0-2.979L71.666,36.217l3.451-3.452l24.688,24.687L90.159,67.098z"/>
	</g>
</g>
<g>
	<g>
		<path fill="#2186D1" d="M42.587,57.686c-0.027-0.135-0.067-0.268-0.12-0.395s-0.118-0.248-0.194-0.364
			c-0.076-0.114-0.164-0.224-0.261-0.32c-0.097-0.097-0.207-0.186-0.32-0.261c-0.116-0.076-0.238-0.142-0.365-0.194
			c-0.126-0.052-0.259-0.093-0.394-0.12c-0.271-0.055-0.552-0.055-0.823,0c-0.135,0.027-0.268,0.067-0.394,0.12
			s-0.249,0.118-0.365,0.194c-0.113,0.075-0.223,0.164-0.32,0.261c-0.097,0.097-0.186,0.206-0.261,0.32
			c-0.076,0.116-0.141,0.237-0.194,0.364c-0.052,0.127-0.093,0.26-0.12,0.395c-0.027,0.137-0.04,0.273-0.04,0.412
			c0,0.137,0.013,0.273,0.04,0.411c0.027,0.135,0.067,0.268,0.12,0.394c0.053,0.127,0.118,0.249,0.194,0.365
			c0.076,0.113,0.164,0.223,0.261,0.319c0.097,0.097,0.207,0.186,0.32,0.261c0.116,0.076,0.238,0.142,0.365,0.194
			s0.259,0.093,0.394,0.12c0.137,0.027,0.273,0.04,0.413,0.04c0.137,0,0.276-0.013,0.411-0.04s0.268-0.067,0.394-0.12
			s0.249-0.118,0.365-0.194c0.113-0.075,0.223-0.164,0.32-0.261c0.097-0.097,0.186-0.206,0.261-0.319
			c0.076-0.116,0.141-0.238,0.194-0.365c0.052-0.126,0.093-0.259,0.12-0.394c0.027-0.138,0.04-0.274,0.04-0.411
			C42.627,57.959,42.615,57.822,42.587,57.686z"/>
	</g>
</g>
<g>
	<g>
		<path fill="#2186D1" d="M92.932,57.986c-0.027-0.135-0.068-0.268-0.121-0.396c-0.053-0.126-0.117-0.248-0.193-0.362
			c-0.076-0.116-0.164-0.224-0.261-0.319c-0.097-0.098-0.204-0.186-0.321-0.264c-0.113-0.076-0.235-0.142-0.363-0.193
			c-0.127-0.053-0.26-0.094-0.395-0.121c-0.271-0.055-0.552-0.055-0.821,0c-0.135,0.027-0.268,0.068-0.396,0.121
			c-0.127,0.053-0.249,0.117-0.363,0.193c-0.115,0.078-0.223,0.166-0.32,0.264c-0.097,0.096-0.186,0.203-0.264,0.319
			c-0.075,0.114-0.141,0.236-0.193,0.362c-0.053,0.129-0.092,0.262-0.119,0.396s-0.041,0.273-0.041,0.41s0.014,0.276,0.041,0.411
			c0.026,0.135,0.066,0.268,0.119,0.394c0.053,0.129,0.118,0.251,0.193,0.365c0.078,0.115,0.167,0.223,0.264,0.32
			c0.098,0.096,0.205,0.185,0.32,0.261c0.113,0.075,0.236,0.142,0.362,0.193c0.129,0.053,0.261,0.093,0.396,0.12
			c0.135,0.027,0.274,0.043,0.411,0.043s0.275-0.016,0.41-0.043s0.268-0.067,0.395-0.12c0.128-0.053,0.25-0.118,0.363-0.193
			c0.116-0.076,0.224-0.165,0.32-0.261c0.393-0.393,0.617-0.936,0.617-1.49C92.973,58.26,92.959,58.121,92.932,57.986z"/>
	</g>
</g>
</svg>
