<?xml version="1.0" encoding="utf-8"?>
<!-- Generator: Adobe Illustrator 15.0.0, SVG Export Plug-In . SVG Version: 6.00 Build 0)  -->
<!DOCTYPE svg PUBLIC "-//W3C//DTD SVG 1.1//EN" "http://www.w3.org/Graphics/SVG/1.1/DTD/svg11.dtd">
<svg version="1.1" id="Layer_1" xmlns="http://www.w3.org/2000/svg" xmlns:xlink="http://www.w3.org/1999/xlink" x="0px" y="0px"
	 width="511px" height="511px" viewBox="0 0 511 511" enable-background="new 0 0 511 511" xml:space="preserve">
<path fill="#2186D1" d="M510.413,221.227c-0.004-0.012-0.008-0.02-0.012-0.031c-0.004-0.008-0.008-0.02-0.012-0.027L428.472,31.27
	c-2.982-6.912-7.489-12.916-13.037-17.361c-10.569-8.476-23.871-13.146-37.45-13.146h-44.748c-0.191-0.004-0.379-0.004-0.57,0
	h-76.935c-0.074,0-0.152-0.004-0.23-0.004s-0.156,0.004-0.23,0.004h-76.928c-0.195-0.008-0.394-0.008-0.585,0h-35.704
	c-4.133,0-7.485,3.353-7.485,7.485c0,4.136,3.353,7.485,7.485,7.485h26.737l-13.497,62.562c-12.207-9.801-27.524-15.24-43.665-15.24
	c-10.257,0-20.214,2.218-29.251,6.366l13.895-32.214c2.027-4.698,5.045-8.733,8.725-11.676c0,0,6.394-4.456,9.902-6
	c3.782-1.668,5.497-6.086,3.829-9.872c-1.668-3.782-6.09-5.493-9.871-3.828c-4.679,2.062-9.084,4.725-13.096,7.918
	c-0.008,0.004-0.102,0.082-0.105,0.086c-5.594,4.468-10.136,10.499-13.13,17.442L29.79,153.527c-0.07,0.152-0.137,0.304-0.195,0.46
	L0.612,221.168c-0.004,0.008-0.008,0.02-0.012,0.027c-0.004,0.012-0.008,0.02-0.012,0.031c-0.41,0.971-0.601,1.984-0.589,2.986
	v27.115c0,4.749,2.819,9.029,7.177,10.912c4.351,1.875,9.396,0.99,12.842-2.265c13.423-12.667,30.99-19.641,49.466-19.641
	c20.203,0,39.61,8.553,53.24,23.462c2.238,2.451,5.435,3.859,8.768,3.859s6.53-1.408,8.768-3.855
	c13.629-14.913,33.033-23.466,53.232-23.466c20.203,0,39.61,8.553,53.24,23.462c2.238,2.451,5.435,3.859,8.768,3.859
	c3.333,0,6.53-1.408,8.769-3.855c13.629-14.913,33.033-23.466,53.228-23.466c20.206,0,39.614,8.553,53.243,23.462
	c2.238,2.451,5.436,3.859,8.769,3.859s6.53-1.408,8.769-3.855c9.859-10.788,22.541-18.242,36.686-21.564
	c4.023-0.943,6.519-4.971,5.575-8.998c-0.943-4.023-4.971-6.519-8.998-5.575c-16.016,3.758-30.479,11.903-42.031,23.63
	c-16.308-16.519-38.722-25.93-62.012-25.93c-23.282,0-45.688,9.412-61.996,25.934c-16.308-16.522-38.717-25.934-62.008-25.934
	c-23.283,0-45.692,9.412-62,25.934c-16.304-16.522-38.717-25.934-62.008-25.934c-19.984,0-39.092,6.76-54.515,19.166v-17.684
	c29.556-34.164,82.674-32.792,110.694,1.984c0.105,0.085,1.626,2.261,4.733,2.709c2.807,0.394,5.392-0.745,6.998-2.799
	c13.766-17.033,34.207-26.799,56.098-26.799c20.717,0,40.226,7.922,56.324,27.064c0.105,0.125,0.195,0.222,0.292,0.32
	c0.18,0.191,0.421,0.413,0.604,0.561c1.31,1.092,3.076,1.786,4.994,1.731c1.813-0.058,3.451-0.733,4.729-1.855
	c0.094-0.082,0.202-0.179,0.292-0.269c0.125-0.125,0.211-0.21,0.324-0.339c0.102-0.113,0.16-0.179,0.266-0.312
	c0.004-0.004,0.008-0.008,0.012-0.012c13.77-17.088,34.241-26.889,56.167-26.889c37.556,0,57.157,27.895,57.057,27.805
	c6.008,5.283,11.891-1.883,10.659-0.764c32.073-37.61,83.337-33.883,110.818-2.136v17.68c-12.023-9.676-26.281-15.934-41.622-18.214
	c-4.082-0.597-7.895,2.214-8.503,6.304c-0.608,4.09,2.215,7.899,6.304,8.507c14.585,2.164,27.992,8.687,38.772,18.85
	c3.446,3.255,8.487,4.144,12.838,2.269c4.363-1.883,7.178-6.163,7.178-10.912v-27.115
	C511.014,223.211,510.822,222.198,510.413,221.227z M127.15,208.771c-27.614-24.464-68.097-28.78-100.261-10.717l16.07-37.251
	c12.004-13.162,29.154-20.69,47.236-20.69c18.218,0,35.279,7.52,47.291,20.741L127.15,208.771z M141.193,143.667
	c-14.07-11.898-32.035-18.526-50.998-18.526c-12.472,0-24.592,2.913-35.446,8.328l16.09-37.298
	c10.277-11.543,25.08-18.144,40.791-18.144c15.361,0,29.758,6.25,40,17.251L141.193,143.667z M248.016,206.116
	c-15.31-12.323-34.41-19.15-54.526-19.15c-18.039,0-35.267,5.493-49.672,15.521l8.885-41.173
	c12.031-13.505,29.271-21.201,47.692-21.201c18.386,0,35.595,7.661,47.622,21.103V206.116z M248.016,140.97
	c-13.513-10.199-30.145-15.829-47.622-15.829c-15.349,0-30.042,4.343-42.545,12.312l8.908-41.31
	c10.285-11.54,25.025-18.121,40.784-18.121c15.598,0,30.203,6.444,40.476,17.77V140.97z M248.016,75.882
	c-11.638-8.276-25.715-12.826-40.476-12.826c-12.819,0-25.115,3.431-35.747,9.754l12.312-57.076h63.91V75.882z M377.984,15.734
	c10.336,0,20.047,3.407,28.086,9.852c3.645,2.924,6.639,6.939,8.654,11.614l13.899,32.222c-9.041-4.148-19.002-6.366-29.264-6.366
	c-16.132,0-31.45,5.438-43.653,15.24l-13.496-62.562H377.984z M262.986,15.734h63.91l12.313,57.076
	c-10.636-6.324-22.939-9.754-35.759-9.754c-14.761,0-28.831,4.55-40.464,12.826V15.734z M262.986,95.792
	c10.27-11.326,24.869-17.766,40.464-17.766c15.763,0,30.507,6.577,40.792,18.117l8.912,41.31
	c-12.508-7.969-27.205-12.312-42.563-12.312c-17.473,0-34.097,5.63-47.605,15.829V95.792z M317.497,186.966
	c-20.109,0-39.204,6.827-54.511,19.15v-44.896c12.027-13.446,29.229-21.107,47.609-21.107c18.43,0,35.674,7.696,47.705,21.201
	l8.881,41.177C352.775,192.463,335.548,186.966,317.497,186.966z M359.368,95.278c10.245-11.002,24.636-17.251,39.992-17.251
	c15.72,0,30.526,6.601,40.804,18.144l16.089,37.298c-10.857-5.415-22.979-8.328-35.458-8.328c-18.959,0-36.92,6.628-50.986,18.526
	L359.368,95.278z M383.852,208.771l-10.335-47.918c12.008-13.221,29.068-20.741,47.278-20.741c18.09,0,35.24,7.528,47.248,20.69
	l16.074,37.251C452.542,180.331,412.023,183.808,383.852,208.771z"/>
</svg>
