<?xml version="1.0" encoding="utf-8"?>
<!-- Generator: Adobe Illustrator 15.0.0, SVG Export Plug-In . SVG Version: 6.00 Build 0)  -->
<!DOCTYPE svg PUBLIC "-//W3C//DTD SVG 1.1//EN" "http://www.w3.org/Graphics/SVG/1.1/DTD/svg11.dtd">
<svg version="1.1" id="Layer_1" xmlns="http://www.w3.org/2000/svg" xmlns:xlink="http://www.w3.org/1999/xlink" x="0px" y="0px"
	 width="512px" height="512px" viewBox="0 0 512 512" enable-background="new 0 0 512 512" xml:space="preserve">
<path fill="#2186D1" d="M146.173,292H210v164.252c0,25.405,20.595,46,46,46s46-20.595,46-46V292h63.827
	c25.481-0.147,46.086-20.8,46.173-46.282V16c-0.032-1.602-0.694-3.126-1.844-4.243c-1.158-1.127-2.712-1.758-4.328-1.757H216.253
	c-1.896,0-3.682,0.896-4.814,2.418l-32.406,43.551l-29.078-43.313c-1.114-1.66-2.982-2.656-4.981-2.656h-38.8
	c-3.348-0.014-6.092,2.653-6.174,6v229.718C100.087,271.2,120.691,291.853,146.173,292z M290,456.252c0,18.777-15.223,34-34,34
	c-18.778,0-34-15.223-34-34V352.405h68V456.252z M290,340.4h-68V292h68V340.4z M276,22h88v72.89c0,5.523-4.477,10-10,10
	s-10-4.477-10-10V71.665c0-11.874-9.626-21.5-21.5-21.5s-21.5,9.626-21.5,21.5v83.15c0,6.904-5.597,12.5-12.5,12.5
	s-12.5-5.596-12.5-12.5V22z M112,22h29.775L173.8,69.7c1.086,1.617,2.889,2.606,4.836,2.653c1.952,0.067,3.811-0.836,4.964-2.413
	L219.268,22H264v132.815c0,13.531,10.969,24.5,24.5,24.5s24.5-10.969,24.5-24.5v-83.15c0-5.247,4.254-9.5,9.5-9.5s9.5,4.253,9.5,9.5
	V94.89c0,12.15,9.85,22,22,22s22-9.85,22-22V22h24v181H112V22z M112,215h288v30.718c-0.079,18.858-15.315,34.143-34.173,34.282
	H146.173c-18.857-0.14-34.093-15.424-34.173-34.282V215z"/>
<path fill="#2186D1" d="M137,72.691c-3.313,0-6,2.687-6,6v1.946c0,3.313,2.687,6,6,6s6-2.687,6-6v-1.946
	C143,75.377,140.313,72.691,137,72.691z"/>
<path fill="#2186D1" d="M137,94.139c-3.313,0-6,2.686-6,6v66.286c0,3.314,2.687,6,6,6s6-2.686,6-6v-66.286
	C143,96.825,140.313,94.139,137,94.139z"/>
</svg>
