<?xml version="1.0" encoding="utf-8"?>
<!-- Generator: Adobe Illustrator 15.0.0, SVG Export Plug-In . SVG Version: 6.00 Build 0)  -->
<!DOCTYPE svg PUBLIC "-//W3C//DTD SVG 1.1//EN" "http://www.w3.org/Graphics/SVG/1.1/DTD/svg11.dtd">
<svg version="1.1" id="Capa_1" xmlns="http://www.w3.org/2000/svg" xmlns:xlink="http://www.w3.org/1999/xlink" x="0px" y="0px"
	 width="512px" height="512px" viewBox="0 0 512 512" enable-background="new 0 0 512 512" xml:space="preserve">
<g>
	<g>
		<g>
			<path fill="#2186D1" d="M219,257.01c-6.887,0.215-12.075-7.542-9.23-13.82c3.268-8.161,15.193-8.159,18.46,0
				C231.073,249.469,225.888,257.225,219,257.01L219,257.01z"/>
		</g>
	</g>
	<g>
		<g>
			<path fill="#2186D1" d="M422.614,237.013h-4.098V37.905C418.518,17.004,401.514,0,380.613,0H131.387
				c-20.901,0-37.905,17.004-37.905,37.905v199.108h-4.096c-5.523,0-10,4.477-10,10v38.292c0,17.043,13.865,30.908,30.907,30.908
				h89.778c3.92,2.434,11.284,18.487,13.514,36.047c0,0.003,0.001,0.006,0.001,0.009c0.75,5.916,0.426,8.773,0.309,9.508
				c-3.263,20.467-7.992,35.249-12.164,48.29c-4.449,13.907-8.292,25.919-8.292,39.373C193.44,483.935,221.504,512,256,512
				c34.495,0,62.561-28.065,62.561-62.561c0-13.429-3.84-25.438-8.287-39.343c-4.174-13.052-8.903-27.846-12.168-48.323
				c-0.117-0.734-0.441-3.592,0.31-9.515c0-0.001,0-0.003,0-0.004c2.229-17.558,9.594-33.609,13.515-36.043h89.777
				c17.042,0,30.907-13.864,30.907-30.908v-38.292C432.614,241.49,428.137,237.013,422.614,237.013L422.614,237.013z
				 M113.482,37.905c0-9.873,8.032-17.905,17.905-17.905h157.429v132.316c0,7.949-6.469,14.416-14.418,14.416
				c-7.948,0-14.416-6.467-14.416-14.416V82.421c0-5.523-4.478-10-10-10s-10,4.477-10,10v48.005c0,7.949-6.467,14.417-14.417,14.417
				c-7.949,0-14.416-6.467-14.416-14.417V73.432c0-5.523-4.477-10-10-10s-10,4.477-10,10c0,7.949-6.467,14.416-14.417,14.416
				c-7.949,0-14.417-6.467-14.417-14.416c0-5.523-4.477-10-10-10s-10,4.477-10,10V96.22c0,7.949-6.467,14.417-14.417,14.417
				c-7.949,0-14.417-6.467-14.417-14.417L113.482,37.905L113.482,37.905z M298.561,449.439C298.561,472.907,279.468,492,256,492
				s-42.56-19.093-42.56-42.561c0-10.333,3.239-20.461,7.341-33.279c4.171-13.041,9.363-29.271,12.866-51.237
				c0.191-1.202,0.318-2.511,0.379-3.922h43.949c0.062,1.412,0.188,2.722,0.381,3.924c3.502,21.975,8.695,38.215,12.869,51.266
				C295.322,429.006,298.561,439.13,298.561,449.439z M280.145,341h-48.29c-1.431-6.709-3.945-16.242-7.963-24.787h64.215
				C284.088,324.759,281.575,334.29,280.145,341L280.145,341z M412.614,285.305c0,6.016-4.894,10.908-10.907,10.908H110.293
				c-6.014,0-10.907-4.893-10.907-10.908v-28.291h70.285c5.523,0,10-4.478,10-10s-4.477-10-10-10h-56.189V127.469
				c4.388,2.032,9.272,3.167,14.417,3.167c16.222,0,29.858-11.279,33.477-26.409c4.625,2.316,9.841,3.62,15.357,3.62
				c5.145,0,10.029-1.134,14.417-3.167v25.745c0,18.978,15.439,34.417,34.416,34.417c5.596,0,10.883-1.343,15.559-3.722
				c3.899,14.726,17.339,25.613,33.275,25.613c18.978,0,34.416-15.439,34.416-34.416V20h71.799c9.871,0,17.903,8.032,17.903,17.905
				v199.108H266.332c-5.521,0-10,4.477-10,10s4.479,10,10,10h146.282V285.305z"/>
		</g>
	</g>
	<g>
		<path fill="#2186D1" d="M256,467.667c-5.523,0-10-4.477-10-10v-16c0-5.523,4.477-10,10-10c5.521,0,10,4.477,10,10v16
			C266,463.19,261.521,467.667,256,467.667z"/>
	</g>
</g>
</svg>
