<?xml version="1.0" encoding="utf-8"?>
<!-- Generator: Adobe Illustrator 15.0.0, SVG Export Plug-In . SVG Version: 6.00 Build 0)  -->
<!DOCTYPE svg PUBLIC "-//W3C//DTD SVG 1.1//EN" "http://www.w3.org/Graphics/SVG/1.1/DTD/svg11.dtd">
<svg version="1.1" id="Layer_1" xmlns="http://www.w3.org/2000/svg" xmlns:xlink="http://www.w3.org/1999/xlink" x="0px" y="0px"
	 width="115px" height="100px" viewBox="0 0 115 100" enable-background="new 0 0 115 100" xml:space="preserve">
<g>
	<g>
		<g>
			<path fill="#CCCCCC" d="M9.587,18.585c13.725,11.624,37.807,32.072,44.885,38.448c0.95,0.86,1.969,1.298,3.027,1.298
				c1.056,0,2.073-0.433,3.021-1.29c7.084-6.382,31.166-26.833,44.891-38.456c0.855-0.722,0.985-1.992,0.293-2.875
				c-1.599-2.041-3.982-3.21-6.539-3.21H15.833c-2.555,0-4.94,1.17-6.539,3.21C8.603,16.593,8.733,17.863,9.587,18.585z"/>
			<path fill="#CCCCCC" d="M106.291,24.884c-0.738-0.344-1.606-0.224-2.221,0.301C88.85,38.088,69.424,54.627,63.313,60.134
				c-3.43,3.097-8.191,3.097-11.629-0.004c-6.514-5.87-28.329-24.414-40.753-34.945c-0.619-0.525-1.489-0.641-2.222-0.301
				C7.972,25.226,7.5,25.962,7.5,26.774v52.392c0,4.597,3.737,8.334,8.333,8.334h83.333c4.596,0,8.333-3.737,8.333-8.334V26.774
				C107.5,25.962,107.027,25.224,106.291,24.884z"/>
		</g>
	</g>
</g>
</svg>
