<?xml version="1.0" encoding="utf-8"?>
<!-- Generator: Adobe Illustrator 15.0.0, SVG Export Plug-In . SVG Version: 6.00 Build 0)  -->
<!DOCTYPE svg PUBLIC "-//W3C//DTD SVG 1.1//EN" "http://www.w3.org/Graphics/SVG/1.1/DTD/svg11.dtd">
<svg version="1.1" id="Layer_1" xmlns="http://www.w3.org/2000/svg" xmlns:xlink="http://www.w3.org/1999/xlink" x="0px" y="0px"
	 width="512px" height="512px" viewBox="0 0 512 512" enable-background="new 0 0 512 512" xml:space="preserve">
<g>
	<path fill="#2186D1" d="M80,464H64c-4.418,0-8,3.582-8,8s3.582,8,8,8h16c4.418,0,8-3.582,8-8S84.418,464,80,464z"/>
	<path fill="#2186D1" d="M112,480c4.418,0,8-3.582,8-8s-3.582-8-8-8h-8c-4.418,0-8,3.582-8,8s3.582,8,8,8H112z"/>
	<path fill="#2186D1" d="M136,488h-24c-4.418,0-8,3.582-8,8s3.582,8,8,8h24c4.418,0,8-3.582,8-8S140.418,488,136,488z"/>
	<path fill="#2186D1" d="M416,472h-16c-4.418,0-8,3.582-8,8s3.582,8,8,8h16c4.418,0,8-3.582,8-8S420.418,472,416,472z"/>
	<path fill="#2186D1" d="M448,480c4.418,0,8-3.582,8-8s-3.582-8-8-8h-8c-4.418,0-8,3.582-8,8s3.582,8,8,8H448z"/>
	<path fill="#2186D1" d="M472,488h-24c-4.418,0-8,3.582-8,8s3.582,8,8,8h24c4.418,0,8-3.582,8-8S476.418,488,472,488z"/>
	<path fill="#2186D1" d="M248,464h-16c-4.418,0-8,3.582-8,8s3.582,8,8,8h16c4.418,0,8-3.582,8-8S252.418,464,248,464z"/>
	<path fill="#2186D1" d="M280,472h-8c-4.418,0-8,3.582-8,8s3.582,8,8,8h8c4.418,0,8-3.582,8-8S284.418,472,280,472z"/>
	<path fill="#2186D1" d="M208,488h-24c-4.418,0-8,3.582-8,8s3.582,8,8,8h24c4.418,0,8-3.582,8-8S212.418,488,208,488z"/>
	<path fill="#2186D1" d="M496,440h-3.58l-26.27-65.66c13.037-4.379,21.829-16.586,21.85-30.34v-72c0-4.418-3.582-8-8-8
		c-57.412,0.062-103.938,46.588-104,104c0,4.418,3.582,8,8,8h12.18l-25.6,64H320v-16c0-4.418-3.582-8-8-8h-32v-56h72
		c4.418,0,8-3.582,8-8v-24c0-4.418-3.582-8-8-8h-72V168h168c4.418,0,8-3.582,8-8c0-107.13-91.561-125.79-168-127.8V16
		c0-4.418-3.582-8-8-8h-48c-4.418,0-8,3.582-8,8v16.2C147.56,34.21,56,52.87,56,160c0,4.418,3.582,8,8,8h168v152h-72
		c-4.418,0-8,3.582-8,8v24c0,4.418,3.582,8,8,8h72v56h-32c-4.418,0-8,3.582-8,8v16h-51.58l-25.6-64H128c4.418,0,8-3.582,8-8
		c-0.062-57.412-46.588-103.938-104-104c-4.418,0-8,3.582-8,8v72c0.016,13.415,8.383,25.4,20.97,30.04L18.58,440H16
		c-4.418,0-8,3.582-8,8s3.582,8,8,8h480c4.418,0,8-3.582,8-8S500.418,440,496,440z M40,344v-63.641
		c42.259,3.91,75.731,37.382,79.64,79.641H56C47.168,359.988,40.012,352.832,40,344z M42.58,440h-6.76l25.6-64h6.76L42.58,440z
		 M59.82,440l19.68-49.21L99.18,440H59.82z M116.42,440l-25.6-64h6.76l25.6,64H116.42z M392.54,70.53
		c29.88,16.74,45.39,43.45,47.27,81.47H336v-32c0-29.17-12.971-55.06-32.9-71.08C341.54,51.32,370.98,58.44,392.54,70.53z M240,24
		h32v8h-32V24z M176,152H72.19c1.88-38.02,17.39-64.73,47.27-81.47c21.56-12.09,51-19.21,89.44-21.61
		C188.97,64.94,176,90.83,176,120V152z M192,152v-32c0-39.7,28.71-72,64-72s64,32.3,64,72v32H192z M264,168v152h-16V168H264z
		 M168,344v-8h176v8H168z M264,360v56h-16v-56H264z M304,440h-96v-8h96V440z M392.359,360c3.91-42.259,37.382-75.73,79.641-79.641
		V344c-0.012,8.832-7.168,15.988-16,16H392.359z M394.58,440h-6.76l25.6-64h6.76L394.58,440z M411.82,440l19.68-49.21L451.18,440
		H411.82z M468.42,440l-25.6-64h6.76l25.6,64H468.42z"/>
</g>
</svg>
