<?xml version="1.0" encoding="utf-8"?>
<!-- Generator: Adobe Illustrator 15.0.0, SVG Export Plug-In . SVG Version: 6.00 Build 0)  -->
<!DOCTYPE svg PUBLIC "-//W3C//DTD SVG 1.1//EN" "http://www.w3.org/Graphics/SVG/1.1/DTD/svg11.dtd">
<svg version="1.1" id="Capa_1" xmlns="http://www.w3.org/2000/svg" xmlns:xlink="http://www.w3.org/1999/xlink" x="0px" y="0px"
	 width="115px" height="100px" viewBox="0 0 115 100" enable-background="new 0 0 115 100" xml:space="preserve">
<g>
	<g>
		<path fill="#2186D1" d="M29.377,78.397c-1.563-1.563-3.641-2.424-5.852-2.424c-1.306,0-2.564,0.303-3.699,0.87
			C8.678,61.049,8.64,39.403,19.921,23.569c0.626-0.878,0.421-2.098-0.458-2.724c-0.878-0.626-2.098-0.421-2.724,0.458
			c-6.224,8.734-9.416,19.048-9.233,29.827c0.174,10.258,3.395,19.988,9.329,28.249c-2.358,3.234-2.079,7.805,0.838,10.722
			c1.613,1.613,3.732,2.42,5.851,2.42s4.238-0.807,5.852-2.42C32.604,86.873,32.604,81.624,29.377,78.397z M26.615,87.338
			c-1.704,1.703-4.475,1.703-6.179,0c-1.703-1.703-1.703-4.475,0-6.179c0.825-0.825,1.922-1.279,3.089-1.279
			c1.167,0,2.264,0.454,3.089,1.279C28.318,82.863,28.318,85.635,26.615,87.338z"/>
	</g>
</g>
<g>
	<g>
		<path fill="#2186D1" d="M87.18,88.114c-0.631-0.874-1.852-1.071-2.727-0.438c-5.583,4.034-11.859,6.707-18.656,7.943
			c-1.574,0.287-3.18-0.135-4.404-1.157c-1.217-1.015-1.914-2.506-1.914-4.091V76.056h0.17c2.262,0,4.102-1.84,4.102-4.102v-3.298
			c6.615-2.525,11.328-8.937,11.328-16.429V42.98c3.148-0.86,5.469-3.743,5.469-7.159c0-3.761-2.813-6.876-6.445-7.356V16.29
			c0-3.231-2.629-5.859-5.859-5.859s-5.859,2.628-5.859,5.859v12.109h-9.766V16.29c0-3.231-2.628-5.859-5.859-5.859
			s-5.859,2.628-5.859,5.859v12.175c-3.632,0.48-6.445,3.594-6.445,7.356c0,3.417,2.321,6.299,5.469,7.159v9.247
			c0,7.492,4.712,13.903,11.328,16.429v3.298c0,2.262,1.84,4.102,4.102,4.102h0.22v14.315c0,2.747,1.209,5.331,3.317,7.09
			c1.684,1.404,3.779,2.153,5.934,2.153c0.557,0,1.117-0.05,1.675-0.151c7.374-1.342,14.185-4.243,20.244-8.621
			C87.615,90.209,87.813,88.988,87.18,88.114z M66.289,16.29c0-1.077,0.877-1.953,1.953-1.953c1.077,0,1.953,0.876,1.953,1.953
			v12.109h-3.906V16.29z M44.805,16.29c0-1.077,0.876-1.953,1.953-1.953c1.077,0,1.953,0.876,1.953,1.953v12.109h-3.906V16.29z
			 M38.359,35.821c0-1.938,1.578-3.516,3.516-3.516h31.25c1.939,0,3.516,1.577,3.516,3.516s-1.576,3.516-3.516,3.516h-31.25
			C39.937,39.337,38.359,37.76,38.359,35.821z M43.829,52.228v-8.984h27.343v8.984c0,7.538-6.133,13.672-13.671,13.672
			C49.961,65.899,43.829,59.766,43.829,52.228z M57.574,72.149c-0.016-0.001-0.033-0.003-0.049-0.003
			c-0.017,0-0.033,0.002-0.049,0.003h-2.124c-0.108,0-0.195-0.088-0.195-0.195v-2.306c0.767,0.104,1.549,0.157,2.344,0.157
			c0.794,0,1.577-0.054,2.343-0.157v2.306c0,0.107-0.088,0.195-0.195,0.195H57.574z"/>
	</g>
</g>
<g>
	<g>
		<path fill="#2186D1" d="M92.807,82.82c-0.773-0.723-1.979-0.694-2.72,0.054c-0.015,0.016-0.03,0.031-0.044,0.046
			c-0.736,0.789-0.693,2.024,0.095,2.761c0.376,0.352,0.854,0.525,1.332,0.525c0.505,0,1.008-0.194,1.388-0.579
			c0.016-0.016,0.031-0.031,0.045-0.046C93.639,84.793,93.596,83.557,92.807,82.82z"/>
	</g>
</g>
<g>
	<g>
		<path fill="#2186D1" d="M107.367,46.624c-0.869-11.957-6.023-23.216-14.511-31.704C84.514,6.577,73.371,1.47,61.479,0.541
			C49.73-0.378,38.039,2.81,28.553,9.517c-0.881,0.623-1.09,1.841-0.467,2.722c0.623,0.88,1.842,1.09,2.722,0.467
			c18.14-12.824,43.627-10.685,59.286,4.976c16.184,16.184,18.141,41.316,4.653,59.758c-0.637,0.871-0.447,2.093,0.423,2.73
			c0.348,0.254,0.752,0.376,1.152,0.376c0.602,0,1.195-0.276,1.578-0.8C104.867,70.22,108.229,58.457,107.367,46.624z"/>
	</g>
</g>
<g>
	<g>
		<path fill="#2186D1" d="M24.67,15.146c-0.767-0.759-2.003-0.754-2.763,0.012l-0.032,0.033c-0.759,0.766-0.753,2.002,0.012,2.762
			c0.381,0.377,0.878,0.566,1.375,0.566c0.503,0,1.005-0.193,1.388-0.578l0.032-0.032C25.441,17.142,25.436,15.905,24.67,15.146z"/>
	</g>
</g>
<g>
	<g>
		<path fill="#2186D1" d="M61.904,51.504c-0.35-0.6-0.992-0.969-1.688-0.969H58.82l2.571-3.248c0.669-0.846,0.526-2.074-0.319-2.744
			c-0.846-0.67-2.074-0.527-2.744,0.319l-5.076,6.413c-0.465,0.588-0.553,1.389-0.227,2.063c0.326,0.675,1.009,1.104,1.758,1.104
			h2.082l-2.392,4.223c-0.532,0.938-0.202,2.131,0.737,2.662c0.304,0.172,0.635,0.254,0.961,0.254c0.681,0,1.342-0.357,1.702-0.991
			l4.043-7.139C62.259,52.846,62.254,52.104,61.904,51.504z"/>
	</g>
</g>
</svg>
