<?xml version="1.0" encoding="utf-8"?>
<!-- Generator: Adobe Illustrator 15.0.0, SVG Export Plug-In . SVG Version: 6.00 Build 0)  -->
<!DOCTYPE svg PUBLIC "-//W3C//DTD SVG 1.1//EN" "http://www.w3.org/Graphics/SVG/1.1/DTD/svg11.dtd">
<svg version="1.1" id="Layer_1" xmlns="http://www.w3.org/2000/svg" xmlns:xlink="http://www.w3.org/1999/xlink" x="0px" y="0px"
	 width="19.583px" height="19.459px" viewBox="-0.141 0.234 19.583 19.459" enable-background="new -0.141 0.234 19.583 19.459"
	 xml:space="preserve">
<g>
	<path fill="#FFFFFF" d="M9.688,19.672c-1,0-1.961-0.152-2.868-0.434c0.396-0.645,0.985-1.699,1.204-2.539
		c0.117-0.453,0.602-2.305,0.602-2.305c0.316,0.602,1.238,1.113,2.218,1.113c2.923,0,5.028-2.688,5.028-6.027
		c0-3.199-2.613-5.594-5.973-5.594c-4.18,0-6.402,2.805-6.402,5.863c0,1.422,0.758,3.191,1.965,3.754
		c0.184,0.086,0.281,0.047,0.323-0.129c0.032-0.133,0.195-0.793,0.271-1.098C6.078,12.18,6.067,12.094,5.989,12
		c-0.395-0.488-0.715-1.379-0.715-2.211c0-2.137,1.617-4.203,4.375-4.203c2.379,0,4.046,1.621,4.046,3.941
		c0,2.621-1.323,4.438-3.047,4.438c-0.948,0-1.663-0.785-1.433-1.75c0.273-1.152,0.801-2.395,0.801-3.227
		c0-0.742-0.398-1.363-1.227-1.363c-0.974,0-1.755,1.004-1.755,2.352c0,0.859,0.29,1.438,0.29,1.438s-0.957,4.055-1.133,4.813
		c-0.195,0.836-0.117,2.016-0.036,2.781C2.555,17.598,0,14.09,0,9.984c0-5.352,4.336-9.688,9.688-9.688s9.688,4.336,9.688,9.688
		S15.04,19.672,9.688,19.672z"/>
</g>
</svg>
