<?xml version="1.0" encoding="utf-8"?>
<!-- Generator: Adobe Illustrator 15.0.0, SVG Export Plug-In . SVG Version: 6.00 Build 0)  -->
<!DOCTYPE svg PUBLIC "-//W3C//DTD SVG 1.1//EN" "http://www.w3.org/Graphics/SVG/1.1/DTD/svg11.dtd">
<svg version="1.1" id="Layer_1" xmlns="http://www.w3.org/2000/svg" xmlns:xlink="http://www.w3.org/1999/xlink" x="0px" y="0px"
	 width="20.109px" height="16.375px" viewBox="0 0 20.109 16.375" enable-background="new 0 0 20.109 16.375" xml:space="preserve">
<g>
	<path fill="#FFFFFF" d="M17.957,3.756c0,5.418-4.125,11.663-11.663,11.663c-2.321,0-4.479-0.673-6.294-1.841
		c0.33,0.039,0.647,0.051,0.99,0.051c1.917,0,3.68-0.646,5.089-1.751C4.276,11.84,2.767,10.66,2.246,9.036
		C2.5,9.074,2.754,9.1,3.021,9.1c0.368,0,0.735-0.052,1.078-0.141c-1.878-0.38-3.287-2.03-3.287-4.022V4.886
		c0.546,0.305,1.18,0.495,1.853,0.521C1.561,4.67,0.837,3.414,0.837,1.992c0-0.761,0.203-1.459,0.56-2.068
		c2.018,2.487,5.05,4.112,8.452,4.289C9.784,3.909,9.746,3.591,9.746,3.274c0-2.259,1.827-4.099,4.1-4.099
		c1.181,0,2.245,0.495,2.994,1.294c0.928-0.178,1.814-0.521,2.603-0.99c-0.305,0.952-0.951,1.751-1.802,2.259
		C18.465,1.65,19.264,1.421,20,1.104c-0.559,0.812-1.257,1.536-2.056,2.119C17.957,3.401,17.957,3.579,17.957,3.756z"/>
</g>
</svg>
