<?xml version="1.0" encoding="utf-8"?>
<!-- Generator: Adobe Illustrator 15.0.0, SVG Export Plug-In . SVG Version: 6.00 Build 0)  -->
<!DOCTYPE svg PUBLIC "-//W3C//DTD SVG 1.1//EN" "http://www.w3.org/Graphics/SVG/1.1/DTD/svg11.dtd">
<svg version="1.1" id="Layer_1" xmlns="http://www.w3.org/2000/svg" xmlns:xlink="http://www.w3.org/1999/xlink" x="0px" y="0px"
	 width="512px" height="512px" viewBox="0 0 512 512" enable-background="new 0 0 512 512" xml:space="preserve">
<g>
	<path fill="#2186D1" d="M497,40h-50c-5.523,0-10,4.477-10,10v5h-30c-3.76,0-7.032,2.078-8.74,5.146
		C307.635,63.698,235,138.52,235,230v10h-5c-5.523,0-10,4.477-10,10v40c0,5.523,4.477,10,10,10h5v37c0,9.34-3.64,18.12-10.25,24.75
		C218.13,368.35,209.34,372,200,372s-18.13-3.65-24.75-10.25C168.64,355.12,165,346.34,165,337v-37h5c5.523,0,10-4.477,10-10v-40
		c0-5.523-4.477-10-10-10h-5V108.651c2.986-1.73,5-4.952,5-8.651V70h5c5.523,0,10-4.477,10-10V10c0-5.523-4.477-10-10-10H15
		C9.477,0,5,4.477,5,10v50c0,5.523,4.477,10,10,10h5v30c0,3.699,2.014,6.922,5,8.651V240h-5c-5.523,0-10,4.477-10,10v40
		c0,5.523,4.477,10,10,10h5v37c0,23.63,4.63,46.54,13.75,68.12c4.39,10.37,9.82,20.37,16.14,29.72
		c6.26,9.271,13.45,17.98,21.37,25.9c7.92,7.92,16.63,15.109,25.9,21.37c9.35,6.319,19.35,11.75,29.72,16.14
		c21.58,9.12,44.485,13.75,68.115,13.75l0.005-0.05v0.04V512c13,0,25.315-1.36,37.595-4.05c11.94-2.62,23.643-6.51,34.783-11.58
		c10.931-4.97,21.401-11.11,31.111-18.23c9.63-7.08,18.571-15.159,26.561-24.04c3.69-4.1,3.36-10.43-0.739-14.119
		c-1.84-1.66-4.209-2.57-6.689-2.57c-2.83,0-5.539,1.2-7.43,3.3C285.811,473.3,243.83,492,200,492c-41.39,0-80.31-16.13-109.6-45.4
		C61.13,417.31,45,378.39,45,337v-37h100v37c0,7.43,1.46,14.63,4.32,21.41c2.77,6.55,6.74,12.43,11.79,17.479
		c5.05,5.051,10.93,9.011,17.48,11.79c6.78,2.86,13.98,4.32,21.41,4.32s14.63-1.46,21.41-4.32c6.55-2.779,12.43-6.739,17.48-11.79
		c5.05-5.05,9.02-10.93,11.79-17.479c2.86-6.78,4.32-13.98,4.32-21.41v-37h100v37c0,9.73-0.91,19.47-2.7,28.96
		c-0.5,2.63,0.06,5.29,1.57,7.49c1.5,2.21,3.78,3.7,6.399,4.189c0.621,0.12,1.25,0.181,1.871,0.181c4.789,0,8.92-3.431,9.81-8.15
		c2.02-10.7,3.05-21.689,3.05-32.67v-37h5c5.523,0,10-4.477,10-10v-40c0-5.523-4.477-10-10-10h-5v-8
		c0-14.891,10.223-27.438,24.019-30.992c1.825,2.421,4.717,3.992,7.981,3.992h30v5c0,5.523,4.477,10,10,10h50
		c5.523,0,10-4.477,10-10V50C507,44.477,502.523,40,497,40L497,40z M160,280H30v-20h130V280z M145,110v130H45V110H145z M80,90V70h30
		v20H80z M130,90V70h20v20H130z M60,90H40V70h20V90z M25,50V20h140v30H25z M370,280H240v-20h130V280z M397,180.965
		c-23.904,4.675-42,25.782-42,51.035v8H255v-10c0-80.024,62.997-145.614,142-149.789V180.965z M437,185h-20v-20h20V185z M437,145
		h-20v-30h20V145z M437,95h-20V75h20V95z M487,200h-30V60h30V200z"/>
	<path fill="#2186D1" d="M105.46,401.73c-1.86-2.761-4.96-4.4-8.29-4.4c-2,0-3.93,0.59-5.59,1.71c-2.21,1.5-3.71,3.77-4.22,6.39
		c-0.51,2.62,0.04,5.28,1.53,7.5c18.07,26.74,45.1,46.08,76.12,54.45c0.86,0.23,1.74,0.351,2.61,0.351c4.51,0,8.48-3.04,9.65-7.4
		c1.44-5.32-1.72-10.82-7.05-12.26C143.84,440.96,120.84,424.5,105.46,401.73L105.46,401.73z"/>
	<path fill="#2186D1" d="M292.779,165.811c-2.711,4.813-1.006,10.91,3.807,13.62c1.551,0.874,3.236,1.289,4.896,1.289
		c3.494,0,6.887-1.834,8.724-5.095c1.017-1.804,2.099-3.605,3.216-5.353c10.421-16.29,24.964-29.643,42.057-38.618
		c4.891-2.567,6.773-8.613,4.207-13.502c-2.568-4.89-8.615-6.772-13.502-4.206c-20.164,10.587-37.318,26.337-49.608,45.548
		C295.255,161.557,293.979,163.682,292.779,165.811z"/>
	<circle fill="#2186D1" cx="347.846" cy="410.33" r="10"/>
</g>
</svg>
