<?xml version="1.0" encoding="utf-8"?>
<!-- Generator: Adobe Illustrator 15.0.0, SVG Export Plug-In . SVG Version: 6.00 Build 0)  -->
<!DOCTYPE svg PUBLIC "-//W3C//DTD SVG 1.1//EN" "http://www.w3.org/Graphics/SVG/1.1/DTD/svg11.dtd">
<svg version="1.1" id="Layer_1" xmlns="http://www.w3.org/2000/svg" xmlns:xlink="http://www.w3.org/1999/xlink" x="0px" y="0px"
	 width="16.887px" height="15.107px" viewBox="0 0.014 16.887 15.107" enable-background="new 0 0.014 16.887 15.107"
	 xml:space="preserve">
<g>
	<path fill="#FFFFFF" d="M12.722,9.228c0.146-0.146,0.402-0.044,0.402,0.167v4.26c0,0.776-0.631,1.406-1.406,1.406H1.406
		C0.63,15.061,0,14.431,0,13.655V3.342c0-0.776,0.63-1.406,1.406-1.406h8.012c0.209,0,0.314,0.252,0.168,0.401L8.648,3.275
		C8.603,3.319,8.545,3.342,8.48,3.342H1.406v10.313h10.313V10.33c0-0.062,0.023-0.12,0.066-0.164L12.722,9.228z M8.679,11.947
		L6.032,12.24c-0.769,0.085-1.421-0.563-1.337-1.336l0.293-2.648l7.695-7.693c0.67-0.671,1.754-0.671,2.422,0l1.266,1.266
		c0.67,0.671,0.67,1.758,0.004,2.426L8.679,11.947z M11.777,3.457L6.334,8.903L6.12,10.816l1.913-0.214l5.445-5.443L11.777,3.457z
		 M14.111,1.558c-0.119-0.12-0.314-0.12-0.432,0l-0.906,0.905l1.701,1.702l0.906-0.905c0.117-0.123,0.117-0.316-0.002-0.437
		L14.111,1.558z"/>
</g>
</svg>
