<?xml version="1.0" encoding="utf-8"?>
<!-- Generator: Adobe Illustrator 15.0.0, SVG Export Plug-In . SVG Version: 6.00 Build 0)  -->
<!DOCTYPE svg PUBLIC "-//W3C//DTD SVG 1.1//EN" "http://www.w3.org/Graphics/SVG/1.1/DTD/svg11.dtd">
<svg version="1.1" id="Layer_1" xmlns="http://www.w3.org/2000/svg" xmlns:xlink="http://www.w3.org/1999/xlink" x="0px" y="0px"
	 width="115px" height="100px" viewBox="0 0 115 100" enable-background="new 0 0 115 100" xml:space="preserve">
<g>
	<g>
		<path fill="#2186D1" d="M70.773,19.439c-16.851,0-30.56,13.709-30.56,30.561c0,7.521,2.757,14.75,7.764,20.354
			c0.631,0.707,1.716,0.769,2.424,0.137c0.707-0.631,0.768-1.717,0.136-2.424c-4.444-4.973-6.891-11.39-6.891-18.066
			c0-14.958,12.169-27.127,27.127-27.127c14.959,0,27.128,12.169,27.128,27.127S85.732,77.127,70.773,77.127
			c-5.693,0-11.143-1.744-15.759-5.043c-0.771-0.552-1.843-0.373-2.395,0.397c-0.551,0.771-0.373,1.843,0.398,2.395
			c5.201,3.719,11.341,5.685,17.755,5.685c16.852,0,30.561-13.709,30.561-30.561C101.334,33.149,87.625,19.439,70.773,19.439z"/>
	</g>
</g>
<g>
	<g>
		<path fill="#2186D1" d="M89.035,11.382h-74.58c-3.835,0-6.955,3.12-6.955,6.955v47.852c0,0.948,0.769,1.716,1.716,1.716
			s1.716-0.768,1.716-1.716V18.337c0-1.942,1.58-3.522,3.522-3.522h74.581c0.948,0,1.717-0.769,1.717-1.716
			C90.752,12.15,89.983,11.382,89.035,11.382z"/>
	</g>
</g>
<g>
	<g>
		<path fill="#2186D1" d="M100.545,11.382h-5.559c-0.947,0-1.717,0.769-1.717,1.717c0,0.948,0.77,1.716,1.717,1.716h5.559
			c1.942,0,3.522,1.58,3.522,3.522v63.326c0,1.942-1.58,3.522-3.522,3.522h-86.09c-1.942,0-3.522-1.58-3.522-3.522V71.91
			c0-0.948-0.769-1.717-1.716-1.717c-0.948,0-1.717,0.769-1.717,1.717v9.753c0,3.835,3.12,6.955,6.955,6.955h86.09
			c3.836,0,6.955-3.12,6.955-6.955V18.337C107.5,14.502,104.381,11.382,100.545,11.382z"/>
	</g>
</g>
<g>
	<g>
		<path fill="#2186D1" d="M90.599,41.056c-3.146-2.047-7.073-2.362-10.504-0.842l-5.255,2.327c-0.641-0.35-1.321-0.615-2.028-0.789
			V26.865c0-0.948-0.769-1.716-1.717-1.716c-3.752,0-7.215,1.878-9.262,5.024c-2.048,3.146-2.362,7.074-0.842,10.505l2.325,5.252
			c-0.351,0.641-0.615,1.323-0.79,2.031H47.642l0,0c-0.948,0-1.716,0.769-1.716,1.717c0,3.754,1.878,7.218,5.026,9.265
			c1.827,1.188,3.916,1.792,6.02,1.792c1.52,0,3.045-0.315,4.484-0.953l5.251-2.326c0.642,0.352,1.323,0.618,2.032,0.793v14.885
			c0,0.948,0.768,1.717,1.716,1.717c3.753,0,7.214-1.879,9.262-5.025s2.362-7.075,0.843-10.506l-2.326-5.254
			c0.35-0.64,0.614-1.32,0.788-2.027h14.888c0.947,0,1.717-0.769,1.717-1.717C95.624,46.566,93.745,43.104,90.599,41.056z
			 M60.064,56.643c-2.365,1.049-5.073,0.833-7.241-0.578c-1.679-1.092-2.834-2.769-3.271-4.67h12.842
			c0.215,1.288,0.727,2.506,1.482,3.56L60.064,56.643z M64.711,32.045c1.092-1.678,2.768-2.833,4.668-3.27v12.844
			c-1.289,0.215-2.507,0.726-3.561,1.481l-1.688-3.813C63.082,36.922,63.299,34.214,64.711,32.045z M70.565,55.06
			c-0.012-0.001-0.023-0.001-0.035-0.002c-0.97-0.043-1.901-0.365-2.691-0.932c-0.017-0.013-0.034-0.024-0.052-0.036
			c-1.303-0.953-2.079-2.477-2.079-4.089c0-0.071,0.001-0.143,0.006-0.214c0.001-0.01,0.001-0.02,0.001-0.029
			c0.045-0.976,0.367-1.907,0.936-2.698c0.948-1.331,2.489-2.125,4.122-2.125c0.071,0,0.142,0.001,0.212,0.005
			c0.011,0,0.021,0.001,0.031,0.001c0.975,0.045,1.905,0.367,2.697,0.936c1.332,0.948,2.127,2.489,2.127,4.124
			c0,0.07-0.002,0.141-0.006,0.209c-0.001,0.011-0.001,0.021-0.002,0.032c-0.045,0.973-0.367,1.905-0.932,2.696
			c-0.951,1.332-2.494,2.127-4.128,2.127C70.703,55.064,70.634,55.063,70.565,55.06z M76.838,67.953
			c-1.092,1.678-2.767,2.832-4.667,3.27V58.379c1.288-0.217,2.507-0.728,3.56-1.484l1.688,3.813
			C78.468,63.074,78.25,65.782,76.838,67.953z M79.154,48.604c-0.217-1.291-0.728-2.509-1.484-3.562l3.814-1.689
			c2.366-1.048,5.073-0.831,7.242,0.58c1.68,1.092,2.834,2.769,3.271,4.67L79.154,48.604L79.154,48.604z"/>
	</g>
</g>
<g>
	<g>
		<path fill="#2186D1" d="M34.758,22.71h-17.85c-0.948,0-1.716,0.769-1.716,1.716s0.769,1.716,1.716,1.716h17.85
			c0.948,0,1.716-0.769,1.716-1.716S35.707,22.71,34.758,22.71z"/>
	</g>
</g>
<g>
	<g>
		<path fill="#2186D1" d="M34.758,48.284h-17.85c-0.948,0-1.716,0.769-1.716,1.716c0,0.948,0.769,1.717,1.716,1.717h17.85
			c0.948,0,1.716-0.769,1.716-1.717C36.475,49.052,35.707,48.284,34.758,48.284z"/>
	</g>
</g>
<g>
	<g>
		<path fill="#2186D1" d="M34.758,65.333h-17.85c-0.948,0-1.716,0.769-1.716,1.716c0,0.948,0.769,1.717,1.716,1.717h17.85
			c0.948,0,1.716-0.769,1.716-1.717C36.475,66.102,35.707,65.333,34.758,65.333z"/>
	</g>
</g>
<g>
	<g>
		<path fill="#2186D1" d="M34.758,56.809h-17.85c-0.948,0-1.716,0.769-1.716,1.717c0,0.947,0.769,1.716,1.716,1.716h17.85
			c0.948,0,1.716-0.769,1.716-1.716C36.475,57.577,35.707,56.809,34.758,56.809z"/>
	</g>
</g>
<g>
	<g>
		<path fill="#2186D1" d="M34.758,73.857h-17.85c-0.948,0-1.716,0.769-1.716,1.717c0,0.947,0.769,1.716,1.716,1.716h17.85
			c0.948,0,1.716-0.769,1.716-1.716C36.475,74.626,35.707,73.857,34.758,73.857z"/>
	</g>
</g>
<g>
	<g>
		<path fill="#2186D1" d="M34.758,39.759h-1.945c-0.948,0-1.717,0.769-1.717,1.716c0,0.948,0.769,1.717,1.717,1.717h1.945
			c0.948,0,1.716-0.769,1.716-1.717C36.475,40.528,35.707,39.759,34.758,39.759z"/>
	</g>
</g>
<g>
	<g>
		<path fill="#2186D1" d="M27.092,39.759H16.908c-0.948,0-1.716,0.769-1.716,1.716c0,0.948,0.769,1.717,1.716,1.717h10.184
			c0.948,0,1.717-0.769,1.717-1.717C28.809,40.528,28.04,39.759,27.092,39.759z"/>
	</g>
</g>
<g>
	<g>
		<path fill="#2186D1" d="M34.758,31.234h-17.85c-0.948,0-1.716,0.769-1.716,1.717c0,0.948,0.769,1.716,1.716,1.716h17.85
			c0.948,0,1.716-0.769,1.716-1.716C36.475,32.003,35.707,31.234,34.758,31.234z"/>
	</g>
</g>
</svg>
