<?xml version="1.0" encoding="utf-8"?>
<!-- Generator: Adobe Illustrator 15.0.0, SVG Export Plug-In . SVG Version: 6.00 Build 0)  -->
<!DOCTYPE svg PUBLIC "-//W3C//DTD SVG 1.1//EN" "http://www.w3.org/Graphics/SVG/1.1/DTD/svg11.dtd">
<svg version="1.1" id="Layer_1" xmlns="http://www.w3.org/2000/svg" xmlns:xlink="http://www.w3.org/1999/xlink" x="0px" y="0px"
	 width="512px" height="512px" viewBox="0 0 512 512" enable-background="new 0 0 512 512" xml:space="preserve">
<path fill="#20292d" d="M256,485.333C129.342,485.333,26.667,382.658,26.667,256C26.667,129.343,129.342,26.667,256,26.667
	c126.657,0,229.333,102.676,229.333,229.333C485.333,382.658,382.657,485.333,256,485.333z M148.688,234.021
	c-5.957,5.956-6.275,15.509-0.729,21.849l74.667,85.333c5.817,6.649,15.928,7.324,22.577,1.504
	c6.65-5.817,7.324-15.928,1.504-22.577l-51.447-58.796h167.406c8.837,0,16-7.165,16-16c0-8.836-7.163-16-16-16H198.629
	l47.351-47.353c6.249-6.249,6.249-16.379,0-22.627c-6.249-6.249-16.378-6.249-22.626,0L148.688,234.021z"/>
</svg>
