<?xml version="1.0" encoding="utf-8"?>
<!-- Generator: Adobe Illustrator 15.0.0, SVG Export Plug-In . SVG Version: 6.00 Build 0)  -->
<!DOCTYPE svg PUBLIC "-//W3C//DTD SVG 1.1//EN" "http://www.w3.org/Graphics/SVG/1.1/DTD/svg11.dtd">
<svg version="1.1" id="Layer_5" xmlns="http://www.w3.org/2000/svg" xmlns:xlink="http://www.w3.org/1999/xlink" x="0px" y="0px"
	 width="512px" height="512px" viewBox="0 0 512 512" enable-background="new 0 0 512 512" xml:space="preserve">
<g>
	<circle fill="#2186D1" cx="200" cy="128" r="8"/>
	<circle fill="#2186D1" cx="152" cy="128" r="8"/>
	<path fill="#2186D1" d="M176,184c17.648,0,32-14.352,32-32h-16c0,8.824-7.176,16-16,16s-16-7.176-16-16h-16
		C144,169.648,158.352,184,176,184z"/>
	<path fill="#2186D1" d="M477.664,252.264l-78.136-54.088C399.84,196.048,400,194,400,192c0-26.472-21.527-48-48-48
		c-10,0-19.641,3.128-27.889,9.048c-2.119,1.512-3.359,3.968-3.336,6.568c0.024,2.6,1.305,5.024,3.449,6.504l16.327,11.304
		c3.624,2.512,4.536,7.504,2.032,11.128c-2.432,3.504-7.616,4.464-11.136,2.032l-14.408-9.976c-2.304-1.592-5.272-1.872-7.832-0.72
		c-2.552,1.144-4.328,3.544-4.664,6.32l-0.144,1.056c-0.217,1.56-0.4,3.12-0.4,4.736c0,26.472,21.527,48,48,48
		c6.216,0,12.32-1.256,18.191-3.744l3.945,2.728l-32.113,45.872l-53.912-37.744c-13.799-9.656-29.903-16.024-46.583-18.416
		l-27.072-3.856l-4.632-18.504c8.472-5.456,15.472-13.032,20.584-22.344H240c17.648,0,32-14.352,32-32v-48h8
		c13.232,0,24-10.768,24-24c0-13.232-10.768-24-24-24h-14.656C252.712,27.072,223.92,8,192,8h-32c-44.112,0-80,35.888-80,80v8v8v48
		c0,17.648,14.352,32,32,32h9.584c5.104,9.304,12.104,16.888,20.584,22.344l-4.632,18.504l-33.672,4.808
		c-12.296,1.768-24.256,6.328-34.592,13.216C45.936,258.424,32,284.464,32,312.512V384c0,22.056,17.944,40,40,40h8v80h192V332.313
		l52.313,23.239c6.607,2.952,13.647,4.448,20.912,4.448c16.879,0,32.703-8.288,42.312-22.168l41.92-60.544l20.88,14.456
		c4.048,2.775,8.768,4.256,13.656,4.256c7.864,0,15.248-3.855,19.744-10.336C491.264,274.792,488.544,259.809,477.664,252.264z
		 M163.824,256.864L144,276.688V242L163.824,256.864z M176,267.313L196.688,288h-41.376L176,267.313z M208,242v34.688
		l-19.824-19.823L208,242z M240,168h-3.16c2.032-7.392,3.16-15.416,3.16-24v-8c8.824,0,16,7.176,16,16S248.824,168,240,168z
		 M256,124.448c-4.728-2.752-10.144-4.448-16-4.448v-16h16V124.448z M280,72c4.416,0,8,3.584,8,8s-3.584,8-8,8H177.368
		c3.304-9.312,12.2-16,22.632-16H280z M160,24h32c23.112,0,44.16,12.488,55.448,32H200c-19.32,0-35.48,13.768-39.192,32H96
		C96,52.712,124.712,24,160,24z M112,104v16c-5.856,0-11.272,1.696-16,4.448V104H112z M112,168c-8.824,0-16-7.176-16-16
		s7.176-16,16-16v8c0,8.584,1.128,16.608,3.16,24H112z M128,144v-40h96v40c0,34.016-18.84,56-48,56S128,178.016,128,144z M176,216
		c6.752,0,13.12-0.984,19.064-2.792l3.888,15.584L176,246l-22.952-17.208l3.888-15.584C162.88,215.016,169.248,216,176,216L176,216z
		 M106.136,245.496L128,242.368V304h96v-61.632l15.264,2.184c5.704,0.816,11.28,2.32,16.736,4.192V440h-16V320H112v40H96V247.856
		C99.328,246.84,102.696,245.984,106.136,245.496L106.136,245.496z M128,456v-32h32c17.648,0,32-14.352,32-32s-14.352-32-32-32h-32
		v-24h96v120H128z M160,376c8.824,0,16,7.176,16,16s-7.176,16-16,16h-16v-32H160z M48,384v-71.488
		c0-22.695,11.272-43.752,30.152-56.336c0.592-0.4,1.24-0.712,1.848-1.088V360v8v8h48v32H72C58.768,408,48,397.232,48,384z M112,424
		v16H96v-16H112z M96,456h16v16h56v16H96V456z M184,488v-16h56v-16h16v32H184z M374.384,328.72
		c-6.624,9.568-17.528,15.28-29.159,15.28c-5.009,0-9.849-1.032-14.408-3.064L272,314.8v-58.848
		c2.359,1.353,4.721,2.712,6.943,4.272l67.024,46.911l22.888-32.696l28.833,20.617L374.384,328.72z M406.792,281.904l-28.769-20.568
		l9.265-13.24l29.008,20.08L406.792,281.904z M470.584,276.544c-2.432,3.504-7.616,4.464-11.136,2.032l-83.968-58.128
		c-1.369-0.944-2.961-1.424-4.553-1.424c-1.312,0-2.623,0.32-3.824,0.968C362.225,222.656,357.145,224,352,224
		c-13.536,0-25.145-8.456-29.816-20.36l0.152,0.104c10.536,7.272,26.111,4.44,33.393-6.072c7.527-10.872,4.815-25.856-6.072-33.4
		l-4.937-3.416c2.376-0.568,4.808-0.856,7.28-0.856c17.648,0,32,14.352,32,32c0,2.368-0.352,4.84-1.104,7.8
		c-0.824,3.24,0.463,6.648,3.199,8.544l82.456,57.08c1.752,1.208,2.929,3.04,3.313,5.152
		C472.248,272.688,471.792,274.809,470.584,276.544L470.584,276.544z"/>
</g>
</svg>
