<?xml version="1.0" encoding="utf-8"?>
<!-- Generator: Adobe Illustrator 15.0.0, SVG Export Plug-In . SVG Version: 6.00 Build 0)  -->
<!DOCTYPE svg PUBLIC "-//W3C//DTD SVG 1.1//EN" "http://www.w3.org/Graphics/SVG/1.1/DTD/svg11.dtd">
<svg version="1.1" id="Layer_1" xmlns="http://www.w3.org/2000/svg" xmlns:xlink="http://www.w3.org/1999/xlink" x="0px" y="0px"
	 width="13.148px" height="15.122px" viewBox="0 0 13.148 15.122" enable-background="new 0 0 13.148 15.122" xml:space="preserve">
<g>
	<path fill="#FFFFFF" d="M13.125,12.924v0.75c0,0.776-0.629,1.406-1.406,1.406H1.406C0.63,15.08,0,14.45,0,13.674v-0.75
		c0-2.174,1.764-3.938,3.938-3.938c0.843,0,1.246,0.469,2.625,0.469c1.38,0,1.785-0.469,2.625-0.469
		C11.361,8.986,13.125,10.75,13.125,12.924z M11.719,12.924c0-1.395-1.137-2.531-2.532-2.531c-0.43,0-1.109,0.469-2.625,0.469
		c-1.502,0-2.197-0.469-2.625-0.469c-1.395,0-2.531,1.137-2.531,2.531v0.75h10.313V12.924z M2.344,4.299
		c0-2.329,1.89-4.219,4.218-4.219c2.33,0,4.219,1.89,4.219,4.219S8.892,8.518,6.562,8.518C4.234,8.518,2.344,6.628,2.344,4.299z
		 M3.75,4.299c0,1.55,1.262,2.813,2.812,2.813c1.551,0,2.813-1.263,2.813-2.813S8.113,1.486,6.562,1.486
		C5.012,1.486,3.75,2.749,3.75,4.299z"/>
</g>
</svg>
