<?xml version="1.0" encoding="utf-8"?>
<!-- Generator: Adobe Illustrator 15.0.0, SVG Export Plug-In . SVG Version: 6.00 Build 0)  -->
<!DOCTYPE svg PUBLIC "-//W3C//DTD SVG 1.1//EN" "http://www.w3.org/Graphics/SVG/1.1/DTD/svg11.dtd">
<svg version="1.1" id="Layer_1" xmlns="http://www.w3.org/2000/svg" xmlns:xlink="http://www.w3.org/1999/xlink" x="0px" y="0px"
	 width="511px" height="511px" viewBox="0 0 511 511" enable-background="new 0 0 511 511" xml:space="preserve">
<path fill="#2186D1" d="M8.519,511.987h408.799c4.706,0,8.519-3.813,8.519-8.515v-76.651h59.614c4.706,0,8.519-3.813,8.519-8.515
	v-85.169c0-4.702-3.813-8.515-8.519-8.515h-59.614v-76.651c0-4.706-3.813-8.519-8.519-8.519h-15.63
	c1.201-5.567-0.069-11.384-3.481-15.945l-38.483-51.298l17.771-13.329c7.895-5.911,12.304-15.384,11.747-25.232l-0.854-15.337
	c-0.233-4.16,1.63-8.16,4.963-10.659l17.767-13.326l7.478,9.965c1.353,1.805,3.368,3.002,5.605,3.322
	c0.398,0.054,0.8,0.085,1.205,0.082c1.844,0.004,3.638-0.596,5.111-1.704l70.269-52.713c11.283-8.464,13.571-24.476,5.107-35.762
	l-4.732-6.316c-8.477-11.271-24.48-13.551-35.771-5.099L395.127,58.81c-3.763,2.823-4.527,8.164-1.704,11.926l7.474,9.965
	l-17.766,13.33c-7.895,5.91-12.309,15.38-11.747,25.228l0.851,15.337c0.237,4.16-1.627,8.164-4.959,10.659l-17.767,13.33
	l-38.487-51.298c-4.027-5.454-10.569-8.46-17.334-7.965c-6.451,0.468-12.218,4.21-15.278,9.914l-69.98,130.218H8.519
	c-4.706,0-8.519,3.813-8.519,8.519v85.166c0,4.705,3.813,8.519,8.519,8.519h59.614v68.132H8.519c-4.706,0-8.519,3.813-8.519,8.519
	v85.166C0,508.175,3.813,511.987,8.519,511.987z M475.61,19.722c3.758-2.822,9.095-2.062,11.922,1.7l4.732,6.316
	c2.819,3.762,2.055,9.096-1.703,11.918l-63.458,47.606l-14.951-19.938L475.61,19.722z M153.302,426.821h119.232v68.133H153.302
	V426.821z M221.435,341.656h119.231v68.132H221.435V341.656z M408.803,494.954H289.567v-68.133h119.235V494.954z M476.936,409.788
	H357.699v-68.132h119.236V409.788z M408.803,324.623H289.567v-49.595l87.173-18.542h32.063V324.623z M293.419,117.305
	c0.288-0.597,0.89-0.979,1.552-0.998l0.168-0.008c0.904,0.016,1.742,0.464,2.257,1.205l38.479,51.298l-35.135,26.358
	c-3.762,2.823-4.525,8.16-1.703,11.926c2.822,3.762,8.16,4.522,11.926,1.704l35.135-26.359l38.482,51.298
	c0.613,0.749,0.792,1.758,0.469,2.667c-0.203,0.632-0.737,1.096-1.393,1.213l-168.962,35.93c-1.049,0.164-2.102-0.285-2.706-1.158
	c-0.678-0.818-0.815-1.957-0.351-2.916L293.419,117.305z M198.366,282.604c4.538,6.242,12.328,9.217,19.872,7.594l54.296-11.547
	v45.973H153.302v-68.137h45.969l-2.64,4.912C192.982,268.193,193.665,276.494,198.366,282.604z M17.033,290.557h17.033
	c4.706,0,8.519-3.813,8.519-8.519c0-4.702-3.813-8.515-8.519-8.515H17.033v-17.037h119.236v68.137H17.033V290.557z M85.166,341.656
	h119.236v68.132H85.166V341.656z M17.033,426.821h119.236v68.133H17.033V426.821z"/>
<path fill="#2186D1" d="M110.717,282.038c0-4.702-3.813-8.515-8.519-8.515H68.132c-4.702,0-8.514,3.813-8.514,8.515
	c0,4.706,3.813,8.519,8.514,8.519h34.066C106.904,290.557,110.717,286.744,110.717,282.038z"/>
</svg>
