<?xml version="1.0" encoding="utf-8"?>
<!-- Generator: Adobe Illustrator 15.0.0, SVG Export Plug-In . SVG Version: 6.00 Build 0)  -->
<!DOCTYPE svg PUBLIC "-//W3C//DTD SVG 1.1//EN" "http://www.w3.org/Graphics/SVG/1.1/DTD/svg11.dtd">
<svg version="1.1" id="Layer_1" xmlns="http://www.w3.org/2000/svg" xmlns:xlink="http://www.w3.org/1999/xlink" x="0px" y="0px"
	 width="512px" height="512px" viewBox="0 0 512 512" enable-background="new 0 0 512 512" xml:space="preserve">
<g id="Page-1">
	<g id="_x30_47---Delete">
		<path id="Shape" fill="#2186D1" d="M72.133,488.226c2.099,14.191,14.622,24.476,28.95,23.774h309.833
			c14.331,0.7,26.855-9.588,28.95-23.783l28.877-361.02c21.63-4.087,36.592-23.968,34.532-45.884S482.813,42.652,460.8,42.667
			h-89.767l-5.949-7.442C347.311,12.906,320.314-0.068,291.783,0h-71.567c-28.528-0.07-55.523,12.905-73.291,35.225l-5.955,7.442
			H51.2C29.188,42.652,10.784,59.397,8.724,81.313c-2.06,21.916,12.902,41.796,34.532,45.884L72.133,488.226z M422.854,486.842
			c-0.358,4.467-5.708,8.092-11.934,8.092H101.083c-6.229,0-11.575-3.625-11.933-8.084L60.441,128h391.117L422.854,486.842z
			 M220.216,17.067h71.567c21.814-0.018,42.592,9.3,57.088,25.6H163.14C177.631,26.367,198.406,17.049,220.216,17.067z M25.6,85.333
			c0.016-14.132,11.468-25.584,25.6-25.6h409.6c14.139,0,25.601,11.461,25.601,25.6c0,14.138-11.462,25.6-25.601,25.6H51.2
			C37.068,110.918,25.616,99.465,25.6,85.333z"/>
		<path id="Shape_1_" fill="#2186D1" d="M230.4,435.2c4.713,0,8.533-3.82,8.533-8.533v-230.4c0-9.426,7.641-17.066,17.067-17.066
			s17.066,7.641,17.066,17.066c0,4.713,3.82,8.533,8.533,8.533s8.533-3.82,8.533-8.533c0-18.851-15.281-34.133-34.133-34.133
			s-34.133,15.282-34.133,34.133v230.4C221.867,431.38,225.687,435.2,230.4,435.2z"/>
		<path id="Shape_2_" fill="#2186D1" d="M128,435.2c4.713,0,8.533-3.82,8.533-8.533v-230.4c0-9.426,7.641-17.066,17.067-17.066
			s17.066,7.641,17.066,17.066c0,4.713,3.821,8.533,8.534,8.533c4.712,0,8.533-3.82,8.533-8.533
			c0-18.851-15.282-34.133-34.133-34.133c-18.852,0-34.133,15.282-34.133,34.133v230.4C119.467,431.38,123.287,435.2,128,435.2z"/>
		<path id="Shape_3_" fill="#2186D1" d="M332.8,435.2c4.713,0,8.534-3.82,8.534-8.533v-230.4c0-9.426,7.641-17.066,17.066-17.066
			s17.066,7.641,17.066,17.066c0,4.713,3.82,8.533,8.533,8.533s8.533-3.82,8.533-8.533c0-18.851-15.281-34.133-34.133-34.133
			s-34.134,15.282-34.134,34.133v230.4C324.267,431.38,328.088,435.2,332.8,435.2z"/>
	</g>
</g>
</svg>
