<?xml version="1.0" encoding="utf-8"?>
<!-- Generator: Adobe Illustrator 15.0.0, SVG Export Plug-In . SVG Version: 6.00 Build 0)  -->
<!DOCTYPE svg PUBLIC "-//W3C//DTD SVG 1.1//EN" "http://www.w3.org/Graphics/SVG/1.1/DTD/svg11.dtd">
<svg version="1.1" id="Capa_1" xmlns="http://www.w3.org/2000/svg" xmlns:xlink="http://www.w3.org/1999/xlink" x="0px" y="0px"
	 width="115px" height="100px" viewBox="0 0 115 100" enable-background="new 0 0 115 100" xml:space="preserve">
<g>
	<g>
		<path fill="#2186D1" d="M43.266,77.66H26.245c-0.881,0-1.596,0.714-1.596,1.596c0,0.881,0.714,1.596,1.596,1.596h17.021
			c0.881,0,1.596-0.715,1.596-1.596C44.862,78.374,44.147,77.66,43.266,77.66z"/>
	</g>
</g>
<g>
	<g>
		<path fill="#2186D1" d="M43.266,71.276H26.245c-0.881,0-1.596,0.715-1.596,1.596c0,0.882,0.714,1.596,1.596,1.596h17.021
			c0.881,0,1.596-0.714,1.596-1.596C44.862,71.991,44.147,71.276,43.266,71.276z"/>
	</g>
</g>
<g>
	<g>
		<path fill="#2186D1" d="M43.266,64.894H26.245c-0.881,0-1.596,0.714-1.596,1.596s0.714,1.596,1.596,1.596h17.021
			c0.881,0,1.596-0.714,1.596-1.596S44.147,64.894,43.266,64.894z"/>
	</g>
</g>
<g>
	<g>
		<path fill="#2186D1" d="M43.949,31.326c-0.075-0.036-0.152-0.066-0.233-0.09c-0.669-0.258-1.351-0.488-2.046-0.688v-5.761
			c0-0.881-0.714-1.596-1.596-1.596h-0.532V4.787c0-2.64-2.148-4.787-4.788-4.787c-2.64,0-4.788,2.147-4.788,4.787v18.404h-0.532
			c-0.881,0-1.596,0.715-1.596,1.596v5.761c-0.695,0.2-1.377,0.431-2.046,0.688c-0.081,0.023-0.158,0.054-0.233,0.09
			c-9.249,3.67-15.806,12.708-15.806,23.248v39.574c0,3.227,2.625,5.852,5.851,5.852c3.226,0,5.851-2.625,5.851-5.852V83.511
			c0-3.227-2.625-5.851-5.851-5.851c-0.958,0-1.861,0.232-2.66,0.642V54.574c0-8.38,4.752-15.67,11.702-19.32v4.427
			c0,3.227,2.625,5.851,5.851,5.851h8.51c3.227,0,5.851-2.625,5.851-5.851v-4.427c6.95,3.65,11.702,10.94,11.702,19.32v23.728
			c-0.798-0.409-1.702-0.642-2.66-0.642c-3.226,0-5.851,2.624-5.851,5.851v6.915H26.245c-0.881,0-1.596,0.714-1.596,1.596
			c0,0.881,0.714,1.596,1.596,1.596h21.809v0.531c0,3.227,2.625,5.852,5.851,5.852s5.852-2.625,5.852-5.852V54.574
			C59.756,44.034,53.198,34.997,43.949,31.326z M15.606,80.852c1.467,0,2.66,1.192,2.66,2.659v10.638c0,1.467-1.193,2.66-2.66,2.66
			s-2.66-1.193-2.66-2.66V83.511C12.947,82.044,14.14,80.852,15.606,80.852z M33.16,4.787c0-0.88,0.716-1.596,1.596-1.596
			s1.596,0.716,1.596,1.596v18.404H33.16V4.787z M31.032,26.383h7.447v3.469c-1.215-0.183-2.458-0.278-3.723-0.278
			s-2.508,0.096-3.724,0.278V26.383z M41.67,39.681c0,1.467-1.193,2.66-2.659,2.66H30.5c-1.467,0-2.66-1.193-2.66-2.66V33.89
			c2.174-0.729,4.499-1.124,6.915-1.124c2.416,0,4.741,0.396,6.915,1.124V39.681z M56.564,94.148c0,1.467-1.193,2.66-2.66,2.66
			s-2.66-1.193-2.66-2.66V83.511c0-1.467,1.193-2.659,2.66-2.659s2.66,1.192,2.66,2.659V94.148z"/>
	</g>
</g>
<g>
	<g>
		<path fill="#2186D1" d="M103.648,90.426h-6.416c-0.706-3.469-3.671-6.124-7.285-6.363V31.17c0-0.694-0.445-1.283-1.064-1.503
			V19.362C88.883,8.686,80.197,0,69.521,0S50.16,8.686,50.16,19.362v10.767c0,0.881,0.714,1.596,1.596,1.596
			s1.596-0.714,1.596-1.596V19.362c0-8.917,7.254-16.17,16.17-16.17s16.17,7.254,16.17,16.17v10.212H82.5V19.362
			c0-7.157-5.822-12.979-12.979-12.979s-12.979,5.822-12.979,12.979v16.78c0,0.881,0.714,1.596,1.596,1.596
			c0.881,0,1.596-0.714,1.596-1.596v-16.78c0-5.397,4.391-9.788,9.787-9.788s9.787,4.391,9.787,9.788v10.305
			c-0.619,0.22-1.064,0.809-1.064,1.503v52.893c-3.614,0.239-6.578,2.895-7.285,6.363h-6.416c-0.882,0-1.596,0.715-1.596,1.596
			v6.383c0,0.881,0.714,1.596,1.596,1.596h39.105c0.882,0,1.596-0.715,1.596-1.596v-6.383
			C105.244,91.141,104.53,90.426,103.648,90.426z M81.436,32.766h5.32v51.277h-5.32V32.766z M78.776,87.234h10.639
			c2.08,0,3.854,1.334,4.513,3.191H74.264C74.922,88.568,76.696,87.234,78.776,87.234z M102.053,96.809L102.053,96.809H66.139
			v-3.191h35.914V96.809z"/>
	</g>
</g>
</svg>
