<?xml version="1.0" encoding="utf-8"?>
<!-- Generator: Adobe Illustrator 15.0.0, SVG Export Plug-In . SVG Version: 6.00 Build 0)  -->
<!DOCTYPE svg PUBLIC "-//W3C//DTD SVG 1.1//EN" "http://www.w3.org/Graphics/SVG/1.1/DTD/svg11.dtd">
<svg version="1.1" id="Capa_1" xmlns="http://www.w3.org/2000/svg" xmlns:xlink="http://www.w3.org/1999/xlink" x="0px" y="0px"
	 width="512px" height="512px" viewBox="0 0 512 512" enable-background="new 0 0 512 512" xml:space="preserve">
<g>
	<path fill="#2186D1" d="M504.5,497H444V394.381c38.123-4.223,68-40.271,68-83.98c0-42.989-28.907-78.549-66.129-83.728
		c7.431-9.321,12.509-20.525,14.455-32.698c0.652-4.09-2.133-7.936-6.224-8.59c-4.104-0.646-7.937,2.133-8.59,6.223
		c-3.185,19.938-17.115,36.514-35.865,43.307c-4.479,1.622-7.815,5.523-8.714,10.178c-1.394,7.222-6.472,24.896-23.472,33.032
		c-14.668,7.02-29.058,2.717-34.555,0.544c-9.255-3.674-15.452-9.674-19.291-14.63v-32.411l32.765-32.763
		c2.93-2.93,2.93-7.678,0-10.607c-2.93-2.927-7.679-2.929-10.605,0l-22.158,22.157v-49.657c0-4.143-3.357-7.5-7.5-7.5
		s-7.5,3.357-7.5,7.5v35.263l-22.157-22.157c-2.931-2.928-7.678-2.928-10.606,0c-2.93,2.93-2.93,7.678,0,10.607l32.765,32.765
		v46.808c-3.854,4.962-10.062,10.962-19.283,14.623c-5.507,2.176-19.896,6.479-34.562-0.539
		c-7.103-3.403-12.832-8.821-17.091-16.069c1.305-33.15-8.28-81.598-22.53-128.023c1.943-1.051,3.947-1.999,6.004-2.813
		c6.68-2.626,10.742-9.394,9.883-16.438c-0.159-1.34-0.237-2.636-0.237-3.962c0-15.22,10.306-28.398,25.062-32.05
		c7.1-1.757,12.058-8.132,12.058-15.58c0-26.572,21.622-48.19,48.2-48.19c26.571,0,48.188,21.618,48.188,48.27
		c0,7.369,4.959,13.743,12.06,15.501c16.179,4.005,26.834,19.49,24.826,35.993c-0.858,7.057,3.202,13.822,9.879,16.455
		c14.038,5.525,25.357,16.705,31.057,30.671c1.584,3.881,6.021,5.644,9.777,4.111c3.836-1.565,5.676-5.942,4.11-9.777
		c-7.238-17.742-21.618-31.943-39.446-38.961c-0.3-0.118-0.52-0.426-0.484-0.701c3.007-24.229-12.824-46.574-36.114-52.352
		c-0.379-0.094-0.662-0.498-0.662-1.02C379.311,28.347,350.963,0,316.12,0c-34.849,0-63.2,28.347-63.2,63.27
		c0,0.442-0.284,0.847-0.66,0.94c-21.467,5.311-36.46,24.478-36.46,46.61c0,1.898,0.115,3.828,0.346,5.758
		c0.155,1.298-4.62,2.377-5.664,3.003c-1.867-5.525-3.796-10.958-5.786-16.242C172.535,17.929,140.29,0,118.903,0
		C81.58,0,53.037,52.589,35.664,96.706c-1.518,3.854,0.376,8.209,4.23,9.727c3.852,1.519,8.209-0.376,9.727-4.23
		C71.444,46.784,96.696,15,118.903,15c23.197,0,49.351,34.125,71.755,93.625c21.105,56.051,32.148,116.59,32.148,147.423
		c0,61.691-42.599,112.381-96.403,116.726v-60.865c0-0.003,0-0.007,0-0.01v-28.678l31.301-31.301c2.929-2.93,2.929-7.678,0-10.607
		c-2.93-2.928-7.678-2.928-10.607,0l-20.693,20.693v-31.361c0-4.143-3.357-7.5-7.5-7.5s-7.5,3.357-7.5,7.5v49.464v0.01v13.677
		L90.71,273.102c-2.93-2.928-7.678-2.928-10.607,0c-2.929,2.931-2.929,7.678,0,10.607l31.301,31.301v57.764
		C57.599,368.429,15,317.739,15,256.048c0-28.982,9.321-77.824,23.195-121.537c1.253-3.947-0.932-8.164-4.88-9.417
		c-3.942-1.25-8.163,0.933-9.417,4.88C9.381,175.714,0,225.201,0,256.048c0,70.005,49.321,127.449,111.403,131.762V497H7.5
		c-4.143,0-7.5,3.357-7.5,7.5s3.357,7.5,7.5,7.5h497c4.143,0,7.5-3.357,7.5-7.5S508.643,497,504.5,497L504.5,497z M308.616,497
		H126.403V387.81c53.923-3.745,98.212-47.579,108.923-104.909c3.851,3.531,8.177,6.459,12.966,8.754
		c19.993,9.57,39.218,3.859,46.565,0.955c5.332-2.116,9.879-4.817,13.759-7.725V497z M429,497H323.616V284.891
		c3.878,2.903,8.425,5.604,13.767,7.724c4.291,1.696,12.646,4.354,22.846,4.354c0.573,0,0.771,8.902,0.771,13.434
		c0,43.709,29.877,79.758,68,83.98V497z M436.5,305.223c-4.143,0-7.5,3.357-7.5,7.5v41.228v0.01v25.287
		c-29.831-4.253-53-33.495-53-68.847c0-5.498,0.568-10.934,1.676-16.215c22.964-7.691,36.151-34.609,37.824-45.441
		c5.087-1.907,9.869-4.372,14.287-7.309C466.207,236.741,497,269.814,497,310.4c0,35.352-23.169,64.594-53,68.847v-22.185
		l23.714-23.715c2.929-2.93,2.929-7.678,0-10.606c-2.93-2.928-7.678-2.928-10.606,0L444,335.848v-23.125
		C444,308.58,440.643,305.223,436.5,305.223z"/>
</g>
</svg>
