<?xml version="1.0" encoding="utf-8"?>
<!-- Generator: Adobe Illustrator 15.0.0, SVG Export Plug-In . SVG Version: 6.00 Build 0)  -->
<!DOCTYPE svg PUBLIC "-//W3C//DTD SVG 1.1//EN" "http://www.w3.org/Graphics/SVG/1.1/DTD/svg11.dtd">
<svg version="1.1" id="Capa_1" xmlns="http://www.w3.org/2000/svg" xmlns:xlink="http://www.w3.org/1999/xlink" x="0px" y="0px"
	 width="115px" height="100px" viewBox="0 0 115 100" enable-background="new 0 0 115 100" xml:space="preserve">
<path fill="#2186D1" d="M106.932,37.829L58.253,4.062c-0.453-0.314-1.053-0.314-1.506,0L8.068,37.829
	c-0.475,0.329-0.681,0.929-0.508,1.48c0.172,0.551,0.684,0.927,1.261,0.927h6.338v53.295h-4.899c-0.73,0-1.322,0.592-1.322,1.322
	c0,0.729,0.592,1.32,1.322,1.32h94.477c0.73,0,1.322-0.592,1.322-1.32c0-0.73-0.592-1.322-1.322-1.322H99.84V40.236h6.338
	c0.578,0,1.09-0.375,1.262-0.927C107.612,38.758,107.406,38.159,106.932,37.829z M17.803,93.531V40.236h4.625v53.295H17.803z
	 M47.82,19.902H67.18l6.19,4.294H41.63L47.82,19.902z M51.63,17.26l5.87-4.072l5.869,4.072H51.63z M37.82,26.84H77.18l6.191,4.294
	H31.629L37.82,26.84z M27.819,33.777h59.36l5.502,3.816H22.318L27.819,33.777z M40.322,71.656v-1.541h34.355v1.541H40.322z
	 M75.999,74.299c0.729,0,1.321-0.592,1.321-1.321v-4.185c0-0.729-0.592-1.321-1.321-1.321H39.001c-0.73,0-1.321,0.592-1.321,1.321
	v4.185c0,0.729,0.591,1.321,1.321,1.321h15.085v19.232H25.07v-38.32l14.975-14.975h34.91L89.93,55.211v38.32H60.914V74.299H75.999z
	 M28.366,40.236l-3.296,3.295v-3.295H28.366z M25.07,47.269l7.033-7.033h4.204L25.07,51.474V47.269z M82.896,40.236l7.033,7.033
	v4.205L78.692,40.236H82.896z M89.93,43.532l-3.296-3.295h3.296V43.532z M56.729,93.531V74.299h1.542v19.232H56.729z M97.197,93.531
	h-4.625V40.236h4.625V93.531z M97.318,37.593L58.253,10.494c-0.453-0.314-1.053-0.314-1.506,0L17.681,37.593h-4.636L57.5,6.755
	l44.455,30.838H97.318z"/>
</svg>
