<?xml version="1.0" encoding="utf-8"?>
<!-- Generator: Adobe Illustrator 15.0.0, SVG Export Plug-In . SVG Version: 6.00 Build 0)  -->
<!DOCTYPE svg PUBLIC "-//W3C//DTD SVG 1.1//EN" "http://www.w3.org/Graphics/SVG/1.1/DTD/svg11.dtd">
<svg version="1.1" id="Layer_1" xmlns="http://www.w3.org/2000/svg" xmlns:xlink="http://www.w3.org/1999/xlink" x="0px" y="0px"
	 width="512px" height="512px" viewBox="0 0 512 512" enable-background="new 0 0 512 512" xml:space="preserve">
<path fill="#2186D1" d="M26.667,256C26.667,129.343,129.343,26.667,256,26.667c126.658,0,229.333,102.676,229.333,229.333
	c0,126.658-102.675,229.333-229.333,229.333C129.343,485.333,26.667,382.658,26.667,256z M288.646,159.353
	c-6.248-6.249-16.377-6.249-22.626,0c-6.249,6.248-6.249,16.379,0,22.627l47.351,47.353H149.333c-8.836,0-16,7.164-16,16
	c0,8.836,7.164,16,16,16H316.74l-51.447,58.796c-5.82,6.649-5.146,16.76,1.504,22.577c6.649,5.82,16.76,5.146,22.577-1.504
	l74.667-85.333c5.547-6.34,5.229-15.893-0.729-21.849L288.646,159.353z"/>
</svg>
