<?xml version="1.0" encoding="utf-8"?>
<!-- Generator: Adobe Illustrator 15.0.0, SVG Export Plug-In . SVG Version: 6.00 Build 0)  -->
<!DOCTYPE svg PUBLIC "-//W3C//DTD SVG 1.1//EN" "http://www.w3.org/Graphics/SVG/1.1/DTD/svg11.dtd">
<svg version="1.1" id="Capa_1" xmlns="http://www.w3.org/2000/svg" xmlns:xlink="http://www.w3.org/1999/xlink" x="0px" y="0px"
	 width="115px" height="100px" viewBox="0 0 115 100" enable-background="new 0 0 115 100" xml:space="preserve">
<g>
	<g>
		<g>
			<path fill="#2186D1" d="M57.453,44.458c0.017-0.095,0.024-0.191,0.024-0.287c0-0.094-0.007-0.188-0.023-0.28
				c-0.026-0.151-0.074-0.297-0.141-0.435c-0.013-0.026-0.012-0.056-0.026-0.082c-0.009-0.017-0.025-0.025-0.035-0.041
				c-0.098-0.167-0.226-0.315-0.377-0.437c-0.014-0.011-0.025-0.023-0.039-0.034c-0.058-0.059-0.121-0.112-0.188-0.161L47.5,37.564
				V24.207c-0.009-0.071-0.023-0.14-0.042-0.209c-0.011-0.111-0.033-0.22-0.066-0.327c-0.026-0.075-0.057-0.148-0.094-0.219
				c-0.063-0.127-0.144-0.246-0.238-0.353c-0.022-0.024-0.036-0.055-0.059-0.079l-0.005-0.008l-0.009-0.006
				c-0.109-0.108-0.233-0.201-0.367-0.276L12.438,3.938C11.406,3.371,10.15,3.391,9.137,3.99S7.5,5.68,7.5,6.858v52.949
				c0,0.603,0.325,1.157,0.85,1.452l26.639,14.984l0.003,0.003l0.005,0.002l0.02,0.011c0.069,0.034,0.141,0.063,0.215,0.087
				c0.324,0.141,0.687,0.166,1.028,0.071c0.045-0.012,0.087-0.037,0.131-0.053c0.089-0.027,0.175-0.062,0.258-0.104l10-5.616
				c0.057-0.042,0.11-0.089,0.161-0.138c0.096-0.066,0.184-0.143,0.264-0.227c0.128-0.167,0.234-0.349,0.317-0.541
				c0.035-0.111,0.058-0.226,0.068-0.342c0.019-0.067,0.033-0.137,0.042-0.207v-5.074l9.149-5.139
				c0.057-0.042,0.11-0.088,0.161-0.138c0.096-0.065,0.184-0.142,0.264-0.227c0.128-0.167,0.234-0.349,0.317-0.541
				c0.035-0.11,0.058-0.226,0.068-0.341c0.019-0.068,0.033-0.137,0.042-0.207V44.807c-0.01-0.09-0.028-0.18-0.054-0.267
				C57.452,44.513,57.448,44.485,57.453,44.458z M10.833,6.858l31.554,17.349l-6.554,3.688l-25-14.063V6.858z M44.167,27.03v7.777
				v2.757L37.5,41.309V30.781L44.167,27.03z M44.167,68.215L37.5,71.959V60.371l6.667,3.744V68.215z M44.167,60.293l-7.518-4.223
				c-0.026-0.016-0.057-0.014-0.084-0.027c-0.208-0.08-0.423-0.137-0.643-0.168c-0.03-0.002-0.057-0.018-0.088-0.018
				c-0.07,0.009-0.139,0.022-0.208,0.041c-0.115,0.011-0.229,0.033-0.339,0.068c-0.313,0.104-0.584,0.308-0.769,0.582
				c-0.049,0.049-0.095,0.104-0.137,0.159c-0.016,0.027-0.014,0.058-0.028,0.085c-0.044,0.102-0.079,0.207-0.102,0.316
				c-0.033,0.105-0.055,0.215-0.066,0.326c-0.001,0.031-0.018,0.057-0.018,0.088v14.434L10.833,58.832V17.656l23.333,13.125V44.19
				c0,0.027,0.015,0.05,0.016,0.077c0.022,0.159,0.054,0.317,0.096,0.472c0.026,0.07,0.058,0.139,0.094,0.205
				c0.004,0.009,0.003,0.018,0.008,0.027c0.012,0.021,0.031,0.037,0.044,0.058c0.089,0.173,0.22,0.322,0.381,0.431
				c0.065,0.067,0.137,0.128,0.213,0.183l9.149,5.139V60.293L44.167,60.293z M45.833,47.896l-6.627-3.722l6.627-3.723l6.627,3.723
				L45.833,47.896z M54.167,56.548L47.5,60.292v-9.509l6.667-3.745V56.548z"/>
			<path fill="#2186D1" d="M105.85,21.347c-1.02-0.604-2.286-0.616-3.316-0.029L63.35,43.354c-0.133,0.075-0.254,0.167-0.361,0.274
				l-0.002,0.002c-0.131,0.137-0.237,0.295-0.314,0.468c-0.022,0.046-0.039,0.093-0.058,0.142c-0.062,0.165-0.097,0.339-0.104,0.516
				c0,0.019-0.01,0.034-0.01,0.052v13.333c0,0.631,0.356,1.209,0.921,1.49l9.079,4.54v4.606l-9.079,4.539
				c-0.056,0.038-0.108,0.079-0.159,0.124c-0.076,0.044-0.148,0.093-0.216,0.149c-0.034,0.03-0.064,0.061-0.095,0.094
				c-0.084,0.132-0.176,0.258-0.275,0.378c-0.008,0.017-0.006,0.034-0.014,0.05c-0.017,0.037-0.029,0.072-0.044,0.111
				c-0.043,0.176-0.079,0.355-0.108,0.535c0,0.018-0.01,0.031-0.01,0.049v15c0,0.632,0.356,1.209,0.922,1.491l10,5
				c0.021,0.011,0.047,0.007,0.07,0.017c0.211,0.1,0.439,0.154,0.672,0.158l0.003,0.001h0.001l0,0
				c0.143-0.001,0.283-0.021,0.42-0.058c0.046-0.012,0.088-0.033,0.133-0.05c0.072-0.021,0.143-0.047,0.211-0.078l31.666-16.349
				c0.064-0.045,0.125-0.094,0.182-0.146c0.101-0.063,0.193-0.138,0.277-0.222c0.065-0.08,0.123-0.165,0.172-0.257
				c0.062-0.089,0.113-0.184,0.156-0.284c0.034-0.11,0.057-0.224,0.068-0.339c0.021-0.076,0.037-0.154,0.047-0.233V24.223
				C107.506,23.037,106.877,21.939,105.85,21.347z M65.834,57.11v-9.606l6.666,3.334v9.605L65.834,57.11z M72.5,92.11l-6.666-3.333
				V77.504l6.666,3.334V92.11z M74.148,77.935l-6.254-3.128l6.272-3.136l6.103,3.051L74.148,77.935z M75.834,68.777v-4.629
				l6.666-3.5v11.461L75.834,68.777z M104.166,77.442L75.833,92.07V80.814l8.929-4.68l0.233-0.133
				c0.054-0.041,0.104-0.085,0.151-0.132c0.096-0.067,0.186-0.146,0.266-0.233c0.219-0.242,0.353-0.55,0.38-0.876
				c0.019-0.067,0.032-0.136,0.041-0.204V57.891c0-0.023-0.013-0.043-0.013-0.065c-0.034-0.219-0.088-0.435-0.158-0.645
				c-0.01-0.021-0.009-0.044-0.02-0.065c-0.044-0.063-0.092-0.122-0.145-0.178c-0.064-0.1-0.14-0.191-0.224-0.273
				c-0.169-0.127-0.351-0.236-0.541-0.326c-0.108-0.034-0.221-0.057-0.334-0.067c-0.077-0.021-0.154-0.037-0.233-0.047
				c-0.023,0-0.043,0.013-0.067,0.014c-0.218,0.034-0.433,0.087-0.642,0.157c-0.021,0.01-0.044,0.008-0.065,0.02l-7.559,3.969
				v-9.567l28.333-14.853V77.442z M104.166,32.2L74.148,47.936l-6.429-3.215l36.446-20.506V32.2L104.166,32.2z"/>
		</g>
	</g>
</g>
</svg>
