<?xml version="1.0" encoding="utf-8"?>
<!-- Generator: Adobe Illustrator 15.0.0, SVG Export Plug-In . SVG Version: 6.00 Build 0)  -->
<!DOCTYPE svg PUBLIC "-//W3C//DTD SVG 1.1//EN" "http://www.w3.org/Graphics/SVG/1.1/DTD/svg11.dtd">
<svg version="1.1" id="Layer_1" xmlns="http://www.w3.org/2000/svg" xmlns:xlink="http://www.w3.org/1999/xlink" x="0px" y="0px"
	 width="512px" height="512px" viewBox="0 0 512 512" enable-background="new 0 0 512 512" xml:space="preserve">
<g>
	<path fill="#2186D1" d="M414.571,415.107l-116.515-22.893c-1.361-3.35-2.298-6.851-2.791-10.449
		c-0.968-7.047-0.179-14.299,2.282-20.974l1.282-3.479c1.311-0.929,2.593-1.901,3.844-2.919
		c44.32-35.851,66.793-68.07,66.793-95.768c0-2.892-0.119-5.802-0.355-8.648c-0.004-0.039-0.006-0.078-0.01-0.116
		c-0.155-1.565-0.289-3.732-0.4-6.439c15.012-4.018,26.375-19.778,26.564-38.552c0.032-3.356-0.276-6.64-0.925-9.827
		c9.791-4.232,16.66-13.984,16.66-25.309v-13.301c0-4.142-3.356-7.5-7.5-7.5h-22.435V117.37c0-55.548-45.203-100.74-100.766-100.74
		h-0.265V7.5c0-4.142-3.356-7.5-7.5-7.5h-32.921c-4.142,0-7.5,3.358-7.5,7.5v9.13h-1.823c-55.562,0-100.764,45.192-100.764,100.74
		v31.564h-21.986c-4.142,0-7.5,3.358-7.5,7.5v13.301c0,11.616,7.225,21.576,17.418,25.624c-0.609,3.11-0.906,6.31-0.874,9.513
		c0.187,18.67,11.426,34.36,26.316,38.484c-0.127,2.739-0.273,4.981-0.437,6.648c-0.239,2.677-0.36,5.578-0.36,8.624
		c0,27.688,22.462,59.899,66.747,95.724c1.035,0.843,2.091,1.654,3.167,2.437l1.477,4.005c2.462,6.678,3.251,13.935,2.28,20.986
		c-0.495,3.597-1.431,7.096-2.792,10.442L97.451,415.103c-32.284,6.248-55.716,34.644-55.716,67.52V504.5c0,4.142,3.358,7.5,7.5,7.5
		h238.3c4.143,0,7.5-3.358,7.5-7.5s-3.357-7.5-7.5-7.5H164.31v-21.866h182.956V497h-24.537c-4.143,0-7.5,3.358-7.5,7.5
		s3.357,7.5,7.5,7.5h140.037c4.144,0,7.5-3.358,7.5-7.5v-21.878C470.266,449.746,446.834,421.35,414.571,415.107L414.571,415.107z
		 M388.402,460.134h-26.137v-40.017l26.137,5.135V460.134z M380.266,204.722c-0.104,10.304-5.031,19.153-11.925,22.85
		c-0.091-8.447-0.092-18.702,0.005-30.279h11.127C380.02,199.693,380.291,202.202,380.266,204.722L380.266,204.722z M280.303,31.63
		c44.764,0,81.627,34.462,85.439,78.24h-32.043c-4.143,0-7.5,3.358-7.5,7.5s3.357,7.5,7.5,7.5h32.367v24.064h-86.028V31.63H280.303z
		 M247.117,124.87h17.921v24.064h-17.921V124.87z M265.038,15v94.87h-17.921V15H265.038z M144.53,124.87h32.368
		c4.142,0,7.5-3.358,7.5-7.5s-3.358-7.5-7.5-7.5h-32.043c3.812-43.778,40.676-78.24,85.439-78.24h1.823v117.304H144.53V124.87z
		 M131.587,204.722c-0.025-2.522,0.245-5.029,0.793-7.429h11.094c0.06,11.245,0.015,21.558-0.124,30.191
		C136.542,223.736,131.69,214.944,131.587,204.722z M157.107,258.628c0-2.603,0.101-5.056,0.294-7.224
		c0.951-9.666,1.181-33.03,1.072-54.112h16.989c4.142,0,7.5-3.358,7.5-7.5s-3.358-7.5-7.5-7.5h-47.857
		c-6.926,0-12.562-5.633-12.562-12.557v-5.801h280.958v5.801c0,6.924-5.635,12.557-12.562,12.557H210.532
		c-4.142,0-7.5,3.358-7.5,7.5s3.358,7.5,7.5,7.5h142.813c-0.135,16.747-0.174,43.783,0.822,53.982
		c0.199,2.418,0.301,4.892,0.301,7.354c0,22.622-21.173,51.706-61.24,84.116c-10.51,8.54-23.735,13.237-37.292,13.237
		c-0.089,0-0.177,0-0.267,0c-13.572,0-26.832-4.708-37.365-13.277C178.269,310.315,157.107,281.243,157.107,258.628L157.107,258.628
		z M255.636,370.98h0.333c8.419,0,16.746-1.452,24.608-4.224c-0.884,5.632-0.95,11.391-0.173,17.05
		c0.794,5.778,2.435,11.371,4.885,16.652c-0.848,15.679-13.875,28.174-29.766,28.174c-7.812,0-15.195-2.999-20.791-8.442
		c-5.425-5.279-8.577-12.234-8.977-19.729c2.447-5.275,4.088-10.862,4.883-16.637c0.789-5.735,0.713-11.571-0.203-17.274
		C238.474,369.457,247.009,370.981,255.636,370.98L255.636,370.98z M123.172,425.3l26.138-5.176v40.01h-26.138V425.3z M56.734,497
		v-14.378c0-25.705,18.322-47.907,43.598-52.798l7.839-1.552V497H56.734z M149.31,496.871h-26.138v-21.736h26.138V496.871z
		 M164.31,460.134v-42.98l47.29-9.365c1.763,8.755,6.112,16.769,12.672,23.153c8.412,8.185,19.511,12.692,31.251,12.692
		c21.647,0,39.758-15.426,43.913-35.859l47.83,9.396v42.964L164.31,460.134L164.31,460.134z M388.402,475.134v21.736h-26.137
		v-21.736H388.402z M455.266,497h-51.861v-68.801l8.297,1.63c25.243,4.885,43.564,27.087,43.564,52.792V497z"/>
	<path fill="#2186D1" d="M255.521,311.369c15.935,0,29.938-10.734,34.055-26.104c1.07-4.002-1.305-8.113-5.305-9.186
		c-4.004-1.074-8.114,1.303-9.187,5.305c-2.362,8.822-10.407,14.984-19.564,14.984c-9.151,0-17.193-6.162-19.556-14.984
		c-1.072-4.002-5.189-6.378-9.185-5.305c-4.001,1.07-6.376,5.184-5.305,9.186C225.591,300.635,239.591,311.369,255.521,311.369
		L255.521,311.369z"/>
</g>
</svg>
