<?xml version="1.0" encoding="utf-8"?>
<!-- Generator: Adobe Illustrator 15.0.0, SVG Export Plug-In . SVG Version: 6.00 Build 0)  -->
<!DOCTYPE svg PUBLIC "-//W3C//DTD SVG 1.1//EN" "http://www.w3.org/Graphics/SVG/1.1/DTD/svg11.dtd">
<svg version="1.1" id="Capa_1" xmlns="http://www.w3.org/2000/svg" xmlns:xlink="http://www.w3.org/1999/xlink" x="0px" y="0px"
	 width="115px" height="100px" viewBox="0 0 115 100" enable-background="new 0 0 115 100" xml:space="preserve">
<g>
	<g>
		<path fill="#2186D1" d="M58.876,0.573c-0.363-0.363-0.867-0.572-1.381-0.572s-1.018,0.209-1.381,0.572
			c-0.363,0.363-0.572,0.867-0.572,1.381s0.209,1.018,0.572,1.381s0.868,0.572,1.381,0.572c0.514,0,1.018-0.209,1.381-0.572
			s0.572-0.867,0.572-1.381S59.239,0.937,58.876,0.573z"/>
	</g>
</g>
<g>
	<g>
		<path fill="#2186D1" d="M45.826,26.86c-0.365-0.363-0.867-0.572-1.381-0.572c-0.514,0-1.018,0.209-1.383,0.572
			c-0.363,0.363-0.57,0.867-0.57,1.381s0.208,1.018,0.57,1.383c0.365,0.363,0.867,0.57,1.383,0.57c0.514,0,1.018-0.207,1.381-0.57
			c0.363-0.365,0.572-0.869,0.572-1.383S46.189,27.223,45.826,26.86z"/>
	</g>
</g>
<g>
	<g>
		<path fill="#2186D1" d="M40.43,32.256c-0.763-0.763-1.999-0.763-2.762,0L20.261,49.663c-0.763,0.763-0.763,2,0,2.762
			c0.382,0.382,0.881,0.572,1.381,0.572c0.5,0,1-0.19,1.381-0.572L40.43,35.018C41.192,34.255,41.192,33.019,40.43,32.256z"/>
	</g>
</g>
<g>
	<g>
		<path fill="#2186D1" d="M99.688,92.174h5.859c1.078,0,1.953-0.874,1.953-1.953V12.892c0-0.018-0.002-0.035-0.003-0.053V1.954
			c0-1.079-0.874-1.953-1.953-1.953H67.456c-1.078,0-1.953,0.875-1.953,1.953c0,1.079,0.875,1.953,1.953,1.953h36.135v7.031H11.406
			V3.907h36.839c1.079,0,1.953-0.874,1.953-1.953c0-1.079-0.875-1.953-1.953-1.953H9.453C8.375,0.001,7.5,0.875,7.5,1.954v10.938
			v77.329c0,1.078,0.875,1.953,1.953,1.953H75.47v3.577c0,0.115,0.006,0.229,0.015,0.342H35.741c-1.079,0-1.953,0.874-1.953,1.953
			c0,1.078,0.875,1.953,1.953,1.953h69.806c1.078,0,1.953-0.875,1.953-1.953c0-1.079-0.875-1.953-1.953-1.953h-5.874
			c0.009-0.113,0.015-0.227,0.015-0.342V92.174z M55.548,88.268H11.406v-4.898l36.387-36.388c0.763-0.763,0.763-2,0-2.762
			s-1.999-0.763-2.762,0L11.406,77.845v-63h44.142V88.268z M95.781,95.75c0,0.189-0.152,0.342-0.342,0.342H79.718
			c-0.188,0-0.342-0.152-0.342-0.342V76.562h16.405V95.75z M84.04,72.655h-1.748c-0.525-2.552-1.247-5.046-2.146-7.411
			C82.213,67.127,83.623,69.787,84.04,72.655z M81.73,53.716c3.663,2.628,5.949,6.899,6.02,11.479
			c-0.308,1.143-0.553,2.304-0.733,3.479c-0.497-1.319-1.159-2.569-1.963-3.71C84.358,61.09,83.246,57.325,81.73,53.716z
			 M91.021,57.363c-0.24,0.412-0.468,0.829-0.689,1.25c-0.278-0.689-0.598-1.36-0.957-2.01c0.005-0.045,0.011-0.088,0.013-0.134
			c0.007-0.176,0.169-3.443,2.365-5.956c-0.501,2.146-0.758,4.35-0.758,6.543C90.995,57.162,91.006,57.264,91.021,57.363z
			 M95.381,57.762c-1.409,4.806-2.334,10.117-2.521,14.894h-2.287C90.729,67.293,92.433,62.127,95.381,57.762z M97.734,72.655
			h-0.966c0.333-7.656,2.742-17.006,5.866-22.451c0.026-0.046,0.057-0.106,0.079-0.154c0.379-0.807,0.163-1.769-0.524-2.336
			s-1.672-0.598-2.393-0.073c-1.524,1.11-2.935,2.345-4.221,3.686c0.381-1.608,0.916-3.18,1.604-4.674
			c0.347-0.753,0.181-1.644-0.416-2.221s-1.491-0.714-2.233-0.342l-2.098,1.051c-3.6,1.806-5.335,4.857-6.172,7.321
			c-1.438-1.436-3.119-2.645-5.002-3.545l-3.054-1.459c-0.766-0.366-1.68-0.196-2.263,0.421c-0.582,0.617-0.699,1.539-0.291,2.283
			l0.204,0.371c1.717,3.12,3.083,6.398,4.089,9.793c-0.253-0.141-0.509-0.275-0.77-0.4l-2.561-1.225
			c-0.766-0.365-1.68-0.195-2.263,0.422c-0.582,0.617-0.7,1.539-0.29,2.283l0.17,0.311c1.794,3.26,3.182,7.008,4.064,10.94h-0.875
			c-1.078,0-1.953,0.874-1.953,1.953v13.659H59.453V14.845h44.141v73.423h-3.906V74.608C99.688,73.53,98.813,72.655,97.734,72.655z"
			/>
	</g>
</g>
<g>
	<g>
		<path fill="#2186D1" d="M28.049,96.664c-0.365-0.363-0.867-0.572-1.381-0.572s-1.018,0.209-1.381,0.572
			c-0.365,0.363-0.572,0.867-0.572,1.381s0.207,1.018,0.572,1.381c0.363,0.363,0.867,0.572,1.381,0.572s1.018-0.209,1.381-0.572
			s0.572-0.867,0.572-1.381S28.412,97.027,28.049,96.664z"/>
	</g>
</g>
</svg>
