<?xml version="1.0" encoding="utf-8"?>
<!-- Generator: Adobe Illustrator 15.0.0, SVG Export Plug-In . SVG Version: 6.00 Build 0)  -->
<!DOCTYPE svg PUBLIC "-//W3C//DTD SVG 1.1//EN" "http://www.w3.org/Graphics/SVG/1.1/DTD/svg11.dtd">
<svg version="1.1" id="Capa_1" xmlns="http://www.w3.org/2000/svg" xmlns:xlink="http://www.w3.org/1999/xlink" x="0px" y="0px"
	 width="115px" height="100px" viewBox="0 0 115 100" enable-background="new 0 0 115 100" xml:space="preserve">
<g>
	<g>
		<path fill="#2186D1" d="M70.908,96.957L66.533,46.65c0.651-0.227,1.261-0.561,1.801-0.998c2.092,1.221,4.519,1.814,6.959,1.684
			c3.061-0.163,5.949-1.46,8.133-3.652s3.471-5.084,3.624-8.145c0.103-2.073-0.312-4.148-1.198-6.001
			c-0.158-0.332-0.076-0.712,0.2-0.926c1.808-1.399,2.845-3.51,2.845-5.793c0-2.004-0.835-3.943-2.291-5.321
			c-1.477-1.397-3.412-2.104-5.447-1.992c-3.678,0.204-6.641,3.129-6.893,6.804c-0.004,0.049-0.006,0.098-0.009,0.147
			c-3.678,0.103-7.062,1.789-9.366,4.672c-1.439-0.742-3.053-1.088-4.687-1.002c-4.428,0.233-8.387,4.17-8.646,8.597
			c-0.107,1.836,0.329,3.637,1.26,5.207c0.01,0.017,0.014,0.031,0.01,0.044c-0.002,0.01-0.007,0.018-0.024,0.027
			c-2.105,1.196-3.554,3.21-4.024,5.521h-2.969L43.592,69.93l-3.449-39.666c2.219-1.68,3.736-4.241,4.025-7.158
			c1.555-0.233,2.976-0.984,4.052-2.148c2.079,1.676,4.666,2.592,7.351,2.592c5.823,0,10.745-4.318,11.588-9.987
			c0.985-0.206,1.892-0.72,2.574-1.48c0.901-1.003,1.335-2.353,1.19-3.703c-0.232-2.167-1.973-3.935-4.138-4.202
			c-0.728-0.09-1.469-0.012-2.153,0.227c-2.238-2.73-5.531-4.292-9.062-4.292c-5.568,0-10.293,3.846-11.451,9.227
			c-0.331-0.048-0.665-0.072-1-0.072c-2.344,0-4.524,1.186-5.807,3.125c-1.076-0.373-2.2-0.562-3.349-0.562
			c-5.029,0-9.289,3.679-10.109,8.544c-2.412,1.009-3.964,3.441-3.794,6.138c0.066,1.059,0.404,2.046,0.94,2.896h-1.563
			l-5.874,67.547H7.5v2.93h100v-2.93H70.908z M25.529,22.904l1.058-0.244l0.074-1.083c0.262-3.822,3.47-6.815,7.304-6.815
			c0.947,0,1.87,0.179,2.743,0.533c1.077,0.437,2.322-0.007,2.896-1.032c0.713-1.273,2.061-2.064,3.517-2.064
			c0.313,0,0.625,0.037,0.928,0.108c0.627,0.148,1.295,0.027,1.834-0.332c0.542-0.361,0.914-0.937,1.019-1.578
			c0.699-4.261,4.346-7.354,8.67-7.354c2.688,0,5.194,1.208,6.874,3.316c0.747,0.937,1.984,1.274,3.08,0.839
			c0.285-0.113,0.588-0.151,0.902-0.112c0.828,0.103,1.494,0.779,1.584,1.608c0.057,0.531-0.105,1.04-0.457,1.432
			c-0.348,0.386-0.844,0.608-1.365,0.608h-0.002c-0.973,0-1.785,0.751-1.852,1.712c-0.315,4.584-4.165,8.175-8.765,8.175
			c-2.163,0-4.242-0.793-5.854-2.234c-0.482-0.431-1.129-0.644-1.776-0.586c-0.646,0.059-1.244,0.385-1.64,0.895
			c-0.77,0.991-1.93,1.559-3.182,1.559c-0.093,0-0.186-0.005-0.277-0.011l-1.632-0.11l0.07,1.635
			c0.004,0.105,0.008,0.211,0.008,0.317c0,4.039-3.285,7.324-7.324,7.324h-7.749v0c-1.705-0.029-3.124-1.382-3.23-3.08
			C22.883,24.708,23.953,23.268,25.529,22.904z M22.124,32.339h15.259l0.382,4.395H21.742L22.124,32.339z M21.487,39.664H38.02
			l0.382,4.395H21.105L21.487,39.664z M16.505,96.957l3.835-44.109h1.905v-2.93h-1.65l0.255-2.93h17.806l0.255,2.93h-2.017v2.93
			h2.271l3.835,44.109H16.505z M54.251,42.549c0.703-0.399,1.203-1.046,1.409-1.823c0.207-0.778,0.093-1.592-0.321-2.29
			c-0.632-1.065-0.928-2.29-0.855-3.542c0.172-2.956,2.917-5.686,5.875-5.841c1.174-0.062,2.331,0.202,3.347,0.764
			c1.144,0.632,2.554,0.334,3.355-0.708c1.819-2.368,4.573-3.727,7.563-3.727c0.001,0,0.002,0,0.004,0
			c0.687,0,1.331-0.267,1.813-0.751c0.478-0.479,0.739-1.115,0.735-1.791c0-0.109,0.004-0.22,0.012-0.33
			c0.148-2.167,1.963-3.959,4.131-4.079c1.225-0.068,2.387,0.356,3.271,1.194c0.887,0.839,1.375,1.973,1.375,3.193
			c0,1.369-0.622,2.636-1.707,3.476c-1.378,1.066-1.81,2.919-1.05,4.507c0.687,1.436,0.995,2.98,0.914,4.591
			c-0.239,4.801-4.187,8.762-8.986,9.018c-2.224,0.119-4.345-0.509-6.134-1.816l-1.14-0.833l-0.875,1.109
			c-0.595,0.755-1.487,1.189-2.457,1.189c-0.001,0-0.003,0-0.004,0c-0.673,0-1.317,0.284-1.771,0.781
			c-0.186,0.203-0.33,0.435-0.436,0.684H51.804C52.209,44.283,53.071,43.219,54.251,42.549z M45.942,96.957L45.03,86.469
			l1.858-20.438h2.091v-2.93h-1.825l0.267-2.93h14.376v-2.93h-14.11l0.799-8.79H63.75l0.254,2.93H51.543v2.93H64.26l0.764,8.789
			h-1.762v2.93h2.017l2.689,30.926H45.942z"/>
	</g>
</g>
<g>
	<g>
		<path fill="#2186D1" d="M80.84,2.31c-2.827,0-5.127,2.3-5.127,5.127c0,2.827,2.3,5.127,5.127,5.127s5.127-2.3,5.127-5.127
			C85.967,4.61,83.667,2.31,80.84,2.31z M80.84,9.634c-1.211,0-2.197-0.986-2.197-2.197S79.629,5.24,80.84,5.24
			s2.197,0.986,2.197,2.197S82.051,9.634,80.84,9.634z"/>
	</g>
</g>
<g>
	<g>
		<path fill="#2186D1" d="M96.404,14.029c-2.322,0-4.212,1.889-4.212,4.211s1.89,4.211,4.212,4.211s4.211-1.889,4.211-4.211
			S98.727,14.029,96.404,14.029z M96.404,19.522c-0.709,0-1.282-0.574-1.282-1.282s0.573-1.282,1.282-1.282
			c0.707,0,1.281,0.574,1.281,1.282S97.111,19.522,96.404,19.522z"/>
	</g>
</g>
<g>
	<g>
		<rect x="25.176" y="49.918" fill="#2186D1" width="2.93" height="2.93"/>
	</g>
</g>
<g>
	<g>
		<rect x="31.035" y="49.918" fill="#2186D1" width="2.93" height="2.93"/>
	</g>
</g>
<g>
	<g>
		<path fill="#2186D1" d="M29.57,23.55h2.93c0-1.615,1.314-2.93,2.93-2.93v-2.93C32.199,17.691,29.57,20.319,29.57,23.55z"/>
	</g>
</g>
<g>
	<g>
		<path fill="#2186D1" d="M57.402,11.465c0,1.616-1.314,2.93-2.93,2.93v2.93c3.231,0,5.859-2.628,5.859-5.859H57.402z"/>
	</g>
</g>
<g>
	<g>
		<rect x="51.543" y="63.102" fill="#2186D1" width="2.93" height="2.93"/>
	</g>
</g>
<g>
	<g>
		<rect x="57.402" y="63.102" fill="#2186D1" width="2.93" height="2.93"/>
	</g>
</g>
<g>
	<g>
		<path fill="#2186D1" d="M56.304,35.269h2.93c0-0.606,0.493-1.099,1.099-1.099v-2.93C58.111,31.241,56.304,33.048,56.304,35.269z"
			/>
	</g>
</g>
<g>
	<g>
		<path fill="#2186D1" d="M79.375,35.635c0,2.221-1.807,4.028-4.028,4.028v2.93c3.837,0,6.958-3.121,6.958-6.958H79.375z"/>
	</g>
</g>
</svg>
