<?xml version="1.0" encoding="utf-8"?>
<!-- Generator: Adobe Illustrator 15.0.0, SVG Export Plug-In . SVG Version: 6.00 Build 0)  -->
<!DOCTYPE svg PUBLIC "-//W3C//DTD SVG 1.1//EN" "http://www.w3.org/Graphics/SVG/1.1/DTD/svg11.dtd">
<svg version="1.1" id="Layer_1" xmlns="http://www.w3.org/2000/svg" xmlns:xlink="http://www.w3.org/1999/xlink" x="0px" y="0px"
	 width="115px" height="100px" viewBox="0 0 115 100" enable-background="new 0 0 115 100" xml:space="preserve">
<g>
	<g>
		<g>
			<path fill="#2186D1" d="M75.792,27.436c0.534,0,1.069-0.205,1.478-0.614l0.098-0.098c0.811-0.816,0.809-2.135-0.008-2.947
				c-0.815-0.812-2.135-0.808-2.947,0.008l-0.098,0.098c-0.811,0.816-0.808,2.135,0.008,2.947
				C74.729,27.233,75.261,27.436,75.792,27.436z"/>
			<path fill="#2186D1" d="M100.533,0.61c-0.569-0.569-1.416-0.76-2.175-0.489L83.52,5.427l-1.243-1.243
				c-0.813-0.813-2.133-0.813-2.946,0l-7.537,7.536c0,0,0,0.001,0,0.001L35.929,47.584c0,0,0,0.001,0,0.001l-7.926,7.925
				c-1.735,1.735-1.839,4.396-0.266,6.78l3.156,4.775c-1.345,0.892-2.921,1.371-4.571,1.371c-2.217,0-4.301-0.863-5.868-2.432
				c-1.567-1.566-2.431-3.65-2.431-5.868c0-2.217,0.864-4.302,2.431-5.868c0.814-0.814,0.814-2.133,0-2.947
				c-0.814-0.813-2.133-0.813-2.947,0c-2.354,2.355-3.651,5.485-3.651,8.815s1.297,6.461,3.651,8.815s5.485,3.651,8.815,3.651
				c2.479,0,4.849-0.721,6.869-2.061l18.846,28.521c0.002,0.003,0.004,0.006,0.006,0.009c0.045,0.066,0.093,0.13,0.145,0.19
				c0.021,0.026,0.046,0.049,0.068,0.074c0.033,0.035,0.066,0.07,0.101,0.104c0.029,0.026,0.059,0.051,0.089,0.076
				c0.032,0.026,0.064,0.053,0.099,0.078c0.032,0.023,0.065,0.045,0.099,0.066c0.035,0.023,0.07,0.045,0.106,0.065
				c0.034,0.019,0.068,0.038,0.103,0.055c0.039,0.019,0.079,0.036,0.119,0.054c0.034,0.014,0.067,0.027,0.101,0.04
				c0.043,0.016,0.088,0.028,0.133,0.041c0.033,0.009,0.065,0.02,0.099,0.027c0.047,0.011,0.095,0.019,0.143,0.026
				c0.033,0.005,0.065,0.012,0.098,0.016c0.007,0,0.014,0.002,0.021,0.003c0.066,0.007,0.134,0.01,0.2,0.01
				c0.004,0,0.007,0.001,0.011,0.001c0.004,0,0.009-0.001,0.013-0.001c0.082-0.001,0.163-0.007,0.244-0.018
				c0.028-0.003,0.055-0.008,0.082-0.013c0.071-0.012,0.141-0.026,0.21-0.045c0.017-0.005,0.033-0.008,0.05-0.014
				c0.083-0.024,0.163-0.057,0.242-0.091c0.023-0.011,0.045-0.021,0.068-0.032c0.078-0.037,0.154-0.079,0.227-0.127
				c0.003-0.002,0.007-0.004,0.011-0.006c0.001,0,0.002-0.002,0.003-0.002c0.04-0.026,0.077-0.056,0.115-0.085
				c0.076-0.058,0.149-0.12,0.215-0.187l1.876-1.876c4.885-4.886,4.653-7.856,2.887-13.959l-1.144-3.931l10.509,0.225
				c0.352,0.008,0.684,0.012,1,0.012c3.939,0,6.098-0.694,8.472-4.808l0.933-1.616c0.313-0.542,0.366-1.195,0.145-1.781
				c-0.222-0.585-0.695-1.039-1.289-1.237l-22.704-7.577l33.483-33.481c0-0.001,0.002-0.003,0.003-0.004l7.532-7.533
				c0.814-0.813,0.814-2.132,0-2.946l-1.242-1.243l5.305-14.839C101.293,2.026,101.104,1.18,100.533,0.61z M74.896,73.551
				c-1.225,1.979-1.914,2.133-4.511,2.133c-0.29,0-0.596-0.004-0.915-0.01l-11.815-0.253l-2.458-8.444L74.896,73.551z
				 M80.742,32.139l-1.014-1.014c-0.813-0.813-2.133-0.813-2.946,0c-0.813,0.813-0.813,2.133,0,2.946l1.013,1.013l-8.838,8.839
				l-1.014-1.013c-0.814-0.813-2.133-0.813-2.947,0c-0.813,0.813-0.813,2.133,0,2.946l1.014,1.013l-8.839,8.84l-1.014-1.014
				c-0.813-0.814-2.133-0.814-2.947,0c-0.813,0.813-0.813,2.133,0,2.945l1.014,1.014l-3.611,3.612
				c-0.036,0.036-0.066,0.075-0.099,0.114c-0.024,0.027-0.051,0.055-0.074,0.084c-0.035,0.044-0.064,0.092-0.095,0.139
				c-0.021,0.031-0.043,0.063-0.062,0.094c-0.028,0.049-0.05,0.1-0.074,0.148c-0.017,0.035-0.035,0.068-0.049,0.104
				c-0.021,0.05-0.037,0.103-0.053,0.154c-0.012,0.037-0.026,0.072-0.035,0.109c-0.014,0.053-0.022,0.105-0.031,0.16
				c-0.007,0.037-0.017,0.074-0.021,0.112c-0.007,0.054-0.007,0.11-0.01,0.165c-0.001,0.037-0.006,0.075-0.006,0.113
				c0,0.059,0.008,0.118,0.014,0.178c0.003,0.034,0.003,0.068,0.008,0.104c0.012,0.081,0.031,0.162,0.053,0.243
				c0.003,0.012,0.004,0.022,0.007,0.034l3.996,13.729c0.001,0.005,0.003,0.009,0.004,0.014l1.933,6.64
				c1.55,5.359,1.553,6.467-1.832,9.852l-0.08,0.08l-7.159-10.835L35.411,66.346c-0.005-0.008-0.01-0.016-0.015-0.023l-4.182-6.328
				c0,0,0,0-0.001-0.001c-0.075-0.114-0.702-1.099-0.264-1.536l6.453-6.453l5.869,5.869c0.391,0.391,0.921,0.611,1.473,0.611
				c0.553,0,1.083-0.221,1.474-0.611L73.01,31.081c0.813-0.814,0.813-2.133,0-2.947c-0.814-0.814-2.133-0.813-2.947,0L44.745,53.453
				l-4.396-4.396L73.267,16.14l11.737,11.738L80.742,32.139z M87.95,24.931L76.213,13.193l4.59-4.59L92.54,20.34L87.95,24.931z
				 M92.457,14.364l-5.678-5.677l8.837-3.159L92.457,14.364z"/>
		</g>
	</g>
</g>
</svg>
