<?xml version="1.0" encoding="utf-8"?>
<!-- Generator: Adobe Illustrator 15.0.0, SVG Export Plug-In . SVG Version: 6.00 Build 0)  -->
<!DOCTYPE svg PUBLIC "-//W3C//DTD SVG 1.1//EN" "http://www.w3.org/Graphics/SVG/1.1/DTD/svg11.dtd">
<svg version="1.1" id="Layer_1" xmlns="http://www.w3.org/2000/svg" xmlns:xlink="http://www.w3.org/1999/xlink" x="0px" y="0px"
	 width="17.547px" height="17.578px" viewBox="0 0 17.547 17.578" enable-background="new 0 0 17.547 17.578" xml:space="preserve">
<g>
	<path fill="#FFFFFF" d="M0,2.148c0-1.16,0.941-2.101,2.101-2.101c1.16,0,2.101,0.941,2.101,2.101c0,1.16-0.941,2.121-2.101,2.121
		C0.941,4.27,0,3.309,0,2.148z M0.289,17.547V5.863h3.628v11.684H0.289z M13.876,17.547v-5.688c0-1.355-0.027-3.094-1.887-3.094
		c-1.886,0-2.175,1.473-2.175,2.996v5.785H6.189V5.863h3.48v1.594h0.051c0.484-0.918,1.667-1.887,3.433-1.887
		c3.672,0,4.347,2.418,4.347,5.559v6.418h-0.004H13.876z"/>
</g>
</svg>
