<?xml version="1.0" encoding="utf-8"?>
<!-- Generator: Adobe Illustrator 15.0.0, SVG Export Plug-In . SVG Version: 6.00 Build 0)  -->
<!DOCTYPE svg PUBLIC "-//W3C//DTD SVG 1.1//EN" "http://www.w3.org/Graphics/SVG/1.1/DTD/svg11.dtd">
<svg version="1.1" id="Capa_1" xmlns="http://www.w3.org/2000/svg" xmlns:xlink="http://www.w3.org/1999/xlink" x="0px" y="0px"
	 width="512px" height="512px" viewBox="0 0 512 512" enable-background="new 0 0 512 512" xml:space="preserve">
<g>
	<path fill="#2186D1" d="M354.033,165.751H157.937c-5.522,0-10,4.478-10,10v89.066c0,5.523,4.478,10,10,10h196.096
		c5.523,0,10-4.479,10-10V175.75C364.035,170.228,359.557,165.751,354.033,165.751L354.033,165.751z M344.034,254.816H167.938
		V185.75h176.097V254.816z"/>
	<path fill="#2186D1" d="M473.909,113.678h-12.903V39.035c0-21.504-17.494-38.999-38.997-38.999H300.887c-5.522,0-10,4.477-10,10
		c0,5.522,4.478,10,10,10h121.122c10.476,0,18.998,8.523,18.998,19v307.08c0,80.422-65.413,145.85-145.817,145.85h-78.377
		c-80.42,0-145.846-65.428-145.846-145.85V39.035c0-10.477,8.535-19,19.026-19h121.094c5.522,0,10-4.478,10-10
		c0-5.522-4.478-10-10-10H89.993c-21.52,0-39.027,17.496-39.027,38.999v74.643H38.091C17.088,113.678,0,130.766,0,151.769v86.883
		c0,20.989,17.088,38.063,38.091,38.063h12.875v69.399c0,44.13,17.298,85.729,48.708,117.141
		c31.411,31.41,73.011,48.709,117.139,48.709h78.377c44.115,0,85.708-17.299,117.114-48.709
		c31.407-31.412,48.703-73.013,48.703-117.141v-69.399h12.903c21.003,0,38.091-17.076,38.091-38.063v-86.883
		C512,130.766,494.912,113.678,473.909,113.678L473.909,113.678z M38.091,256.715c-9.976,0-18.091-8.103-18.091-18.062v-86.884
		c0-9.976,8.115-18.092,18.091-18.092h12.875v123.038H38.091L38.091,256.715z M492.001,238.652c0,9.959-8.115,18.063-18.091,18.063
		h-12.904V133.677h12.903c9.976,0,18.091,8.116,18.091,18.092L492.001,238.652L492.001,238.652z"/>
	<path fill="#2186D1" d="M165.682,378.43c0,5.523,4.477,9.999,10,9.999h0.085c5.522,0,9.957-4.477,9.957-9.999s-4.519-10-10.042-10
		C170.16,368.429,165.682,372.906,165.682,378.43L165.682,378.43z"/>
	<path fill="#2186D1" d="M219.2,378.43c0,5.523,4.477,9.999,10,9.999h0.057c5.522,0,9.972-4.477,9.972-9.999s-4.505-10-10.029-10
		C223.677,368.429,219.2,372.906,219.2,378.43L219.2,378.43z"/>
	<path fill="#2186D1" d="M272.717,378.43c0,5.523,4.477,9.999,9.999,9.999h0.058c5.521,0,9.971-4.477,9.971-9.999
		s-4.506-10-10.028-10S272.717,372.906,272.717,378.43z"/>
	<path fill="#2186D1" d="M326.234,378.43c0,5.523,4.477,9.999,9.999,9.999h0.058c5.521,0,9.971-4.477,9.971-9.999
		s-4.506-10-10.028-10S326.234,372.906,326.234,378.43z"/>
	<path fill="#2186D1" d="M366.648,72.122h-39.656c-13.016,0-23.606,10.589-23.606,23.606v23.222h-90.322V95.728
		c0-13.016-10.589-23.606-23.607-23.606h-39.684c-13.016,0-23.606,10.589-23.606,23.606v23.801
		c-12.191,2.566-21.373,13.402-21.373,26.344v148.848c0,14.846,12.077,26.924,26.923,26.924h248.537
		c14.846,0,26.923-12.077,26.923-26.924V145.873c0-11.312-7.017-21.01-16.923-24.989V95.728
		C390.254,82.711,379.664,72.122,366.648,72.122L366.648,72.122z M323.387,95.728c0-1.955,1.652-3.606,3.605-3.606h39.656
		c1.955,0,3.605,1.652,3.605,3.606v23.222h-46.867V95.728z M149.773,92.121h39.684c1.955,0,3.607,1.652,3.607,3.606v23.222h-46.896
		V95.728C146.168,93.773,147.819,92.121,149.773,92.121z M387.178,294.723c0,3.816-3.105,6.922-6.924,6.922H131.718
		c-3.752,0-6.923-3.17-6.923-6.922v-148.85c0-3.817,3.105-6.923,6.923-6.923h248.536c3.818,0,6.924,3.105,6.924,6.923V294.723z"/>
	<path fill="#2186D1" d="M255.985,20.035h0.058c5.523,0,9.972-4.478,9.972-10c0-5.522-4.507-10-10.03-10c-5.523,0-10,4.476-10,10
		C245.986,15.559,250.463,20.035,255.985,20.035z"/>
</g>
</svg>
