<?xml version="1.0" encoding="utf-8"?>
<!-- Generator: Adobe Illustrator 15.0.0, SVG Export Plug-In . SVG Version: 6.00 Build 0)  -->
<!DOCTYPE svg PUBLIC "-//W3C//DTD SVG 1.1//EN" "http://www.w3.org/Graphics/SVG/1.1/DTD/svg11.dtd">
<svg version="1.1" id="Layer_1" xmlns="http://www.w3.org/2000/svg" xmlns:xlink="http://www.w3.org/1999/xlink" x="0px" y="0px"
	 width="115px" height="100px" viewBox="0 0 115 100" enable-background="new 0 0 115 100" xml:space="preserve">
<g>
	<g>
		<path fill="#2186D1" d="M106.015,62.148c-3.545,0-5.37,1.43-6.98,2.691c-1.469,1.151-2.629,2.061-5.149,2.061
			c-2.52,0-3.68-0.909-5.148-2.061c-1.61-1.262-3.436-2.691-6.98-2.691c-2.039,0-3.736,0.476-5.344,1.498
			c-0.692,0.44-0.896,1.358-0.457,2.051c0.44,0.691,1.358,0.896,2.051,0.455c0.805-0.512,1.879-1.034,3.75-1.034
			c2.52,0,3.68,0.909,5.148,2.06c1.611,1.262,3.436,2.693,6.98,2.693s5.371-1.431,6.981-2.693c1.469-1.15,2.629-2.06,5.148-2.06
			c0.82,0,1.485-0.665,1.485-1.485S106.835,62.148,106.015,62.148z"/>
	</g>
</g>
<g>
	<g>
		<path fill="#2186D1" d="M18.145,66.299c-0.795-0.374-1.468-0.9-2.18-1.459c-1.61-1.262-3.435-2.691-6.98-2.691
			c-0.82,0-1.485,0.664-1.485,1.484s0.665,1.485,1.485,1.485c2.52,0,3.679,0.909,5.148,2.06c0.811,0.635,1.648,1.292,2.748,1.809
			c0.204,0.097,0.419,0.143,0.631,0.143c0.557,0,1.092-0.316,1.345-0.854C19.206,67.533,18.887,66.648,18.145,66.299z"/>
	</g>
</g>
<g>
	<g>
		<path fill="#2186D1" d="M83.403,7.917c-10.4,0-18.861,8.46-18.861,18.859v14.406H32.168V26.777c0-5.485,4.464-9.948,9.951-9.948
			c5.485,0,9.948,4.463,9.948,9.948v0.446c0,2.457,1.999,4.455,4.456,4.455c2.456,0,4.455-1.999,4.455-4.455v-0.446
			c0-10.399-8.46-18.859-18.859-18.859c-10.4,0-18.861,8.46-18.861,18.859v47.008c0,0.82,0.665,1.484,1.485,1.484
			c0.82,0,1.485-0.664,1.485-1.484V26.777c0-8.761,7.129-15.889,15.891-15.889c8.761,0,15.889,7.128,15.889,15.889v0.446
			c0,0.818-0.667,1.485-1.485,1.485c-0.819,0-1.485-0.667-1.485-1.485v-0.446c0-7.124-5.795-12.918-12.918-12.918
			c-7.125,0-12.921,5.795-12.921,12.918v43.356c0,0.82,0.665,1.486,1.485,1.486s1.485-0.666,1.485-1.486v-2.219h32.374v5.885
			c0,0.82,0.665,1.485,1.485,1.485s1.485-0.665,1.485-1.485V26.777c0-8.761,7.128-15.889,15.891-15.889
			c8.761,0,15.89,7.128,15.89,15.889v0.446c0,0.818-0.666,1.485-1.485,1.485s-1.485-0.667-1.485-1.485v-0.446
			c0-7.124-5.795-12.918-12.919-12.918s-12.921,5.795-12.921,12.918v5.419c0,0.82,0.665,1.485,1.485,1.485s1.485-0.665,1.485-1.485
			v-5.419c0-5.485,4.464-9.948,9.951-9.948c5.484,0,9.947,4.463,9.947,9.948v0.446c0,2.457,2,4.455,4.456,4.455
			s4.456-1.999,4.456-4.455v-0.446C102.263,16.378,93.803,7.917,83.403,7.917z M32.168,44.153h32.374v3.267H32.168V44.153z
			 M64.542,58.707H43.95c-0.82,0-1.485,0.664-1.485,1.484s0.665,1.485,1.485,1.485h20.592v3.268H32.168v-3.268h6.831
			c0.82,0,1.485-0.665,1.485-1.485s-0.665-1.484-1.485-1.484h-6.831v-8.316h32.374V58.707z"/>
	</g>
</g>
<g>
	<g>
		<path fill="#2186D1" d="M71.968,35.661c-0.82,0-1.485,0.665-1.485,1.485v37.111c0,0.82,0.665,1.485,1.485,1.485
			s1.485-0.665,1.485-1.485V37.146C73.453,36.326,72.788,35.661,71.968,35.661z"/>
	</g>
</g>
<g>
	<g>
		<path fill="#2186D1" d="M106.015,73.254c-3.545,0-5.37,1.43-6.98,2.692c-1.469,1.151-2.629,2.06-5.149,2.06
			c-2.52,0-3.68-0.909-5.148-2.06c-1.61-1.263-3.436-2.692-6.98-2.692s-5.37,1.43-6.98,2.692c-1.469,1.151-2.629,2.06-5.148,2.06
			s-3.68-0.909-5.148-2.06c-1.61-1.263-3.436-2.692-6.98-2.692c-3.544,0-5.37,1.43-6.98,2.692c-1.469,1.151-2.628,2.06-5.148,2.06
			s-3.679-0.909-5.148-2.06c-1.61-1.263-3.436-2.692-6.98-2.692c-3.544,0-5.37,1.43-6.98,2.692c-1.469,1.151-2.628,2.06-5.148,2.06
			s-3.68-0.909-5.148-2.06c-1.61-1.263-3.436-2.692-6.98-2.692c-0.82,0-1.485,0.665-1.485,1.484c0,0.82,0.665,1.486,1.485,1.486
			c2.519,0,3.679,0.908,5.147,2.06c1.61,1.262,3.436,2.692,6.98,2.692c3.544,0,5.37-1.431,6.98-2.692
			c1.469-1.151,2.628-2.06,5.148-2.06s3.68,0.908,5.148,2.06c1.61,1.262,3.436,2.692,6.98,2.692c3.545,0,5.37-1.431,6.98-2.692
			c1.469-1.151,2.628-2.06,5.147-2.06c2.52,0,3.68,0.908,5.148,2.06c1.61,1.262,3.436,2.692,6.98,2.692s5.37-1.431,6.98-2.692
			c1.469-1.151,2.629-2.06,5.148-2.06s3.68,0.908,5.148,2.06c1.611,1.262,3.436,2.692,6.98,2.692s5.371-1.431,6.981-2.692
			c1.469-1.151,2.629-2.06,5.148-2.06c0.82,0,1.485-0.666,1.485-1.486S106.835,73.254,106.015,73.254z"/>
	</g>
</g>
<g>
	<g>
		<path fill="#2186D1" d="M106.015,84.359c-3.545,0-5.37,1.431-6.98,2.692c-1.469,1.151-2.629,2.06-5.149,2.06
			c-2.52,0-3.68-0.908-5.148-2.06c-1.61-1.262-3.436-2.692-6.98-2.692s-5.37,1.431-6.98,2.692c-1.469,1.151-2.629,2.06-5.148,2.06
			s-3.68-0.908-5.148-2.06c-1.61-1.262-3.436-2.692-6.98-2.692c-3.544,0-5.37,1.431-6.98,2.692c-1.469,1.151-2.628,2.06-5.148,2.06
			s-3.679-0.908-5.148-2.06c-1.61-1.262-3.436-2.692-6.98-2.692c-0.82,0-1.485,0.665-1.485,1.485s0.665,1.485,1.485,1.485
			c2.52,0,3.68,0.909,5.148,2.06c1.61,1.263,3.436,2.692,6.98,2.692c3.545,0,5.37-1.43,6.98-2.692
			c1.469-1.151,2.628-2.06,5.147-2.06c2.52,0,3.68,0.909,5.148,2.06c1.61,1.263,3.436,2.692,6.98,2.692s5.37-1.43,6.98-2.692
			c1.469-1.151,2.629-2.06,5.148-2.06s3.68,0.909,5.148,2.06c1.611,1.263,3.436,2.692,6.98,2.692s5.371-1.43,6.981-2.692
			c1.469-1.151,2.629-2.06,5.148-2.06c0.82,0,1.485-0.665,1.485-1.485S106.835,84.359,106.015,84.359z"/>
	</g>
</g>
<g>
	<g>
		<path fill="#2186D1" d="M28.346,87.305c-0.505-0.645-1.438-0.758-2.085-0.252c-1.468,1.15-2.628,2.059-5.147,2.059
			s-3.68-0.908-5.148-2.06c-1.61-1.262-3.436-2.692-6.98-2.692c-0.82,0-1.485,0.665-1.485,1.485c0,0.819,0.665,1.485,1.485,1.485
			c2.519,0,3.679,0.908,5.147,2.06c1.61,1.262,3.436,2.692,6.98,2.692c3.544,0,5.37-1.43,6.98-2.692
			C28.739,88.885,28.852,87.951,28.346,87.305z"/>
	</g>
</g>
</svg>
